<?xml version="1.0" encoding="UTF-8"?>
<svg xmlns="http://www.w3.org/2000/svg" xmlns:xlink="http://www.w3.org/1999/xlink"
     width="1000" height="700" viewBox="0 0 1000 700">
<defs>
</defs>
<rect x="0" y="0" width="100%" height="100%" fill="black" />
<ellipse cx="832" cy="237" rx="0.5" ry="0.5" fill="none" stroke="white" stroke-width="1" />
<ellipse cx="709" cy="301" rx="0.5" ry="0.5" fill="none" stroke="white" stroke-width="1" />
<ellipse cx="83" cy="347" rx="0.5" ry="0.5" fill="none" stroke="white" stroke-width="1" />
<ellipse cx="958" cy="358" rx="0.5" ry="0.5" fill="none" stroke="white" stroke-width="1" />
<ellipse cx="354" cy="327" rx="0.5" ry="0.5" fill="none" stroke="white" stroke-width="1" />
<ellipse cx="850" cy="233" rx="0.5" ry="0.5" fill="none" stroke="white" stroke-width="1" />
<ellipse cx="945" cy="217" rx="0.5" ry="0.5" fill="none" stroke="white" stroke-width="1" />
<ellipse cx="326" cy="369" rx="0.5" ry="0.5" fill="none" stroke="white" stroke-width="1" />
<ellipse cx="854" cy="265" rx="0.5" ry="0.5" fill="none" stroke="white" stroke-width="1" />
<ellipse cx="160" cy="119" rx="0.5" ry="0.5" fill="none" stroke="white" stroke-width="1" />
<ellipse cx="647" cy="351" rx="0.5" ry="0.5" fill="none" stroke="white" stroke-width="1" />
<ellipse cx="156" cy="84" rx="0.5" ry="0.5" fill="none" stroke="white" stroke-width="1" />
<ellipse cx="159" cy="170" rx="0.5" ry="0.5" fill="none" stroke="white" stroke-width="1" />
<ellipse cx="874" cy="369" rx="0.5" ry="0.5" fill="none" stroke="white" stroke-width="1" />
<ellipse cx="190" cy="332" rx="0.5" ry="0.5" fill="none" stroke="white" stroke-width="1" />
<ellipse cx="182" cy="31" rx="0.5" ry="0.5" fill="none" stroke="white" stroke-width="1" />
<ellipse cx="386" cy="130" rx="0.5" ry="0.5" fill="none" stroke="white" stroke-width="1" />
<ellipse cx="688" cy="369" rx="0.5" ry="0.5" fill="none" stroke="white" stroke-width="1" />
<ellipse cx="593" cy="342" rx="0.5" ry="0.5" fill="none" stroke="white" stroke-width="1" />
<ellipse cx="825" cy="319" rx="0.5" ry="0.5" fill="none" stroke="white" stroke-width="1" />
<ellipse cx="833" cy="210" rx="0.5" ry="0.5" fill="none" stroke="white" stroke-width="1" />
<ellipse cx="137" cy="79" rx="0.5" ry="0.5" fill="none" stroke="white" stroke-width="1" />
<ellipse cx="877" cy="285" rx="0.5" ry="0.5" fill="none" stroke="white" stroke-width="1" />
<ellipse cx="261" cy="174" rx="0.5" ry="0.5" fill="none" stroke="white" stroke-width="1" />
<ellipse cx="546" cy="155" rx="0.5" ry="0.5" fill="none" stroke="white" stroke-width="1" />
<ellipse cx="159" cy="247" rx="0.5" ry="0.5" fill="none" stroke="white" stroke-width="1" />
<ellipse cx="462" cy="92" rx="0.5" ry="0.5" fill="none" stroke="white" stroke-width="1" />
<ellipse cx="218" cy="256" rx="0.5" ry="0.5" fill="none" stroke="white" stroke-width="1" />
<ellipse cx="172" cy="381" rx="0.5" ry="0.5" fill="none" stroke="white" stroke-width="1" />
<ellipse cx="483" cy="309" rx="0.5" ry="0.5" fill="none" stroke="white" stroke-width="1" />
<ellipse cx="952" cy="35" rx="0.5" ry="0.5" fill="none" stroke="white" stroke-width="1" />
<ellipse cx="51" cy="89" rx="0.5" ry="0.5" fill="none" stroke="white" stroke-width="1" />
<ellipse cx="200" cy="247" rx="0.5" ry="0.5" fill="none" stroke="white" stroke-width="1" />
<ellipse cx="518" cy="343" rx="0.5" ry="0.5" fill="none" stroke="white" stroke-width="1" />
<ellipse cx="550" cy="297" rx="0.5" ry="0.5" fill="none" stroke="white" stroke-width="1" />
<ellipse cx="600" cy="375" rx="0.5" ry="0.5" fill="none" stroke="white" stroke-width="1" />
<ellipse cx="995" cy="248" rx="0.5" ry="0.5" fill="none" stroke="white" stroke-width="1" />
<ellipse cx="768" cy="364" rx="0.5" ry="0.5" fill="none" stroke="white" stroke-width="1" />
<ellipse cx="852" cy="61" rx="0.5" ry="0.5" fill="none" stroke="white" stroke-width="1" />
<ellipse cx="475" cy="296" rx="0.5" ry="0.5" fill="none" stroke="white" stroke-width="1" />
<ellipse cx="943" cy="145" rx="0.5" ry="0.5" fill="none" stroke="white" stroke-width="1" />
<ellipse cx="944" cy="309" rx="0.5" ry="0.5" fill="none" stroke="white" stroke-width="1" />
<ellipse cx="805" cy="51" rx="0.5" ry="0.5" fill="none" stroke="white" stroke-width="1" />
<ellipse cx="722" cy="107" rx="0.5" ry="0.5" fill="none" stroke="white" stroke-width="1" />
<ellipse cx="275" cy="186" rx="0.5" ry="0.5" fill="none" stroke="white" stroke-width="1" />
<ellipse cx="420" cy="21" rx="0.5" ry="0.5" fill="none" stroke="white" stroke-width="1" />
<ellipse cx="814" cy="190" rx="0.5" ry="0.5" fill="none" stroke="white" stroke-width="1" />
<ellipse cx="194" cy="128" rx="0.5" ry="0.5" fill="none" stroke="white" stroke-width="1" />
<ellipse cx="704" cy="116" rx="0.5" ry="0.5" fill="none" stroke="white" stroke-width="1" />
<ellipse cx="87" cy="10" rx="0.5" ry="0.5" fill="none" stroke="white" stroke-width="1" />
<ellipse cx="941" cy="209" rx="0.5" ry="0.5" fill="none" stroke="white" stroke-width="1" />
<ellipse cx="280" cy="258" rx="0.5" ry="0.5" fill="none" stroke="white" stroke-width="1" />
<ellipse cx="535" cy="374" rx="0.5" ry="0.5" fill="none" stroke="white" stroke-width="1" />
<ellipse cx="45" cy="352" rx="0.5" ry="0.5" fill="none" stroke="white" stroke-width="1" />
<ellipse cx="58" cy="33" rx="0.5" ry="0.5" fill="none" stroke="white" stroke-width="1" />
<ellipse cx="214" cy="61" rx="0.5" ry="0.5" fill="none" stroke="white" stroke-width="1" />
<ellipse cx="384" cy="8" rx="0.5" ry="0.5" fill="none" stroke="white" stroke-width="1" />
<ellipse cx="619" cy="109" rx="0.5" ry="0.5" fill="none" stroke="white" stroke-width="1" />
<ellipse cx="923" cy="274" rx="0.5" ry="0.5" fill="none" stroke="white" stroke-width="1" />
<ellipse cx="75" cy="118" rx="0.5" ry="0.5" fill="none" stroke="white" stroke-width="1" />
<ellipse cx="679" cy="244" rx="0.5" ry="0.5" fill="none" stroke="white" stroke-width="1" />
<ellipse cx="648" cy="71" rx="0.5" ry="0.5" fill="none" stroke="white" stroke-width="1" />
<ellipse cx="773" cy="82" rx="0.5" ry="0.5" fill="none" stroke="white" stroke-width="1" />
<ellipse cx="364" cy="184" rx="0.5" ry="0.5" fill="none" stroke="white" stroke-width="1" />
<ellipse cx="399" cy="103" rx="0.5" ry="0.5" fill="none" stroke="white" stroke-width="1" />
<ellipse cx="559" cy="32" rx="0.5" ry="0.5" fill="none" stroke="white" stroke-width="1" />
<ellipse cx="152" cy="314" rx="0.5" ry="0.5" fill="none" stroke="white" stroke-width="1" />
<ellipse cx="587" cy="211" rx="0.5" ry="0.5" fill="none" stroke="white" stroke-width="1" />
<ellipse cx="910" cy="59" rx="0.5" ry="0.5" fill="none" stroke="white" stroke-width="1" />
<ellipse cx="134" cy="169" rx="0.5" ry="0.5" fill="none" stroke="white" stroke-width="1" />
<ellipse cx="403" cy="120" rx="0.5" ry="0.5" fill="none" stroke="white" stroke-width="1" />
<ellipse cx="172" cy="146" rx="0.5" ry="0.5" fill="none" stroke="white" stroke-width="1" />
<ellipse cx="765" cy="247" rx="0.5" ry="0.5" fill="none" stroke="white" stroke-width="1" />
<ellipse cx="347" cy="285" rx="0.5" ry="0.5" fill="none" stroke="white" stroke-width="1" />
<ellipse cx="913" cy="256" rx="0.5" ry="0.5" fill="none" stroke="white" stroke-width="1" />
<ellipse cx="751" cy="205" rx="0.5" ry="0.5" fill="none" stroke="white" stroke-width="1" />
<ellipse cx="317" cy="75" rx="0.5" ry="0.5" fill="none" stroke="white" stroke-width="1" />
<ellipse cx="761" cy="68" rx="0.5" ry="0.5" fill="none" stroke="white" stroke-width="1" />
<ellipse cx="578" cy="119" rx="0.5" ry="0.5" fill="none" stroke="white" stroke-width="1" />
<ellipse cx="872" cy="228" rx="0.5" ry="0.5" fill="none" stroke="white" stroke-width="1" />
<ellipse cx="853" cy="365" rx="0.5" ry="0.5" fill="none" stroke="white" stroke-width="1" />
<ellipse cx="55" cy="126" rx="0.5" ry="0.5" fill="none" stroke="white" stroke-width="1" />
<ellipse cx="391" cy="100" rx="0.5" ry="0.5" fill="none" stroke="white" stroke-width="1" />
<ellipse cx="211" cy="205" rx="0.5" ry="0.5" fill="none" stroke="white" stroke-width="1" />
<ellipse cx="955" cy="178" rx="0.5" ry="0.5" fill="none" stroke="white" stroke-width="1" />
<ellipse cx="422" cy="29" rx="0.5" ry="0.5" fill="none" stroke="white" stroke-width="1" />
<ellipse cx="649" cy="162" rx="0.5" ry="0.5" fill="none" stroke="white" stroke-width="1" />
<ellipse cx="2" cy="330" rx="0.5" ry="0.5" fill="none" stroke="white" stroke-width="1" />
<ellipse cx="194" cy="24" rx="0.5" ry="0.5" fill="none" stroke="white" stroke-width="1" />
<ellipse cx="267" cy="55" rx="0.5" ry="0.5" fill="none" stroke="white" stroke-width="1" />
<ellipse cx="98" cy="162" rx="0.5" ry="0.5" fill="none" stroke="white" stroke-width="1" />
<ellipse cx="561" cy="153" rx="0.5" ry="0.5" fill="none" stroke="white" stroke-width="1" />
<ellipse cx="981" cy="135" rx="0.5" ry="0.5" fill="none" stroke="white" stroke-width="1" />
<ellipse cx="271" cy="276" rx="0.5" ry="0.5" fill="none" stroke="white" stroke-width="1" />
<ellipse cx="860" cy="212" rx="0.5" ry="0.5" fill="none" stroke="white" stroke-width="1" />
<ellipse cx="909" cy="140" rx="0.5" ry="0.5" fill="none" stroke="white" stroke-width="1" />
<ellipse cx="220" cy="307" rx="0.5" ry="0.5" fill="none" stroke="white" stroke-width="1" />
<ellipse cx="529" cy="89" rx="0.5" ry="0.5" fill="none" stroke="white" stroke-width="1" />
<ellipse cx="349" cy="16" rx="0.5" ry="0.5" fill="none" stroke="white" stroke-width="1" />
<ellipse cx="110" cy="281" rx="0.5" ry="0.5" fill="none" stroke="white" stroke-width="1" />
<ellipse cx="500.0" cy="790.0" rx="180" ry="180" fill="none" stroke="white" stroke-width="1" />
<ellipse cx="500.0" cy="790.0" rx="200" ry="200" fill="none" stroke="white" stroke-width="1" />
<ellipse cx="500.0" cy="790.0" rx="220" ry="220" fill="none" stroke="white" stroke-width="1" />
<path d="M750.0,789.9999999999999 L950.0,789.9999999999999" fill="none" stroke="white" stroke-width="1" />
<path d="M746.2019382530519,746.5879555832672 L844.6827135542728,729.2231378165741" fill="none" stroke="white" stroke-width="1" />
<path d="M734.9231551964771,704.4949641685829 L922.8616793536588,636.0909355034491" fill="none" stroke="white" stroke-width="1" />
<path d="M716.5063509461096,664.9999999999999 L803.1088913245535,614.9999999999999" fill="none" stroke="white" stroke-width="1" />
<path d="M691.5111107797445,629.3030975783652 L844.71999940354,500.7455756410572" fill="none" stroke="white" stroke-width="1" />
<path d="M660.6969024216348,598.4888892202555 L724.9756633902887,521.8844449083576" fill="none" stroke="white" stroke-width="1" />
<path d="M625.0,573.4936490538903 L725.0,400.28856829700266" fill="none" stroke="white" stroke-width="1" />
<path d="M585.505035831417,555.0768448035228 L619.7070501639839,461.107582724932" fill="none" stroke="white" stroke-width="1" />
<path d="M543.4120444167324,543.798061746948 L578.1416799501185,346.83651114450635" fill="none" stroke="white" stroke-width="1" />
<path d="M499.99999999999994,540.0 L499.99999999999994,440.0" fill="none" stroke="white" stroke-width="1" />
<path d="M456.58795558326744,543.798061746948 L421.85832004988134,346.8365111445064" fill="none" stroke="white" stroke-width="1" />
<path d="M414.49496416858267,555.0768448035229 L380.29294983601574,461.1075827249321" fill="none" stroke="white" stroke-width="1" />
<path d="M374.9999999999999,573.4936490538904 L274.9999999999998,400.2885682970027" fill="none" stroke="white" stroke-width="1" />
<path d="M339.3030975783651,598.4888892202555 L275.02433660971116,521.8844449083578" fill="none" stroke="white" stroke-width="1" />
<path d="M308.4888892202555,629.3030975783652 L155.28000059645984,500.7455756410573" fill="none" stroke="white" stroke-width="1" />
<path d="M283.49364905389035,665.0 L196.8911086754465,615.0" fill="none" stroke="white" stroke-width="1" />
<path d="M265.07684480352293,704.4949641685828 L77.13832064634119,636.0909355034491" fill="none" stroke="white" stroke-width="1" />
<path d="M253.798061746948,746.5879555832673 L155.31728644572718,729.2231378165743" fill="none" stroke="white" stroke-width="1" />
</svg>