<?xml version="1.0" encoding="UTF-8"?>
<svg xmlns="http://www.w3.org/2000/svg" xmlns:xlink="http://www.w3.org/1999/xlink"
     width="900mm" height="500mm" viewBox="0 0 900 500">
<defs>
</defs>
<rect x="0" y="0" width="100%" height="100%" fill="black" />
<ellipse cx="76" cy="341" rx="0.5" ry="0.5" fill="none" stroke="white" stroke-width="1" />
<ellipse cx="754" cy="201" rx="0.5" ry="0.5" fill="none" stroke="white" stroke-width="1" />
<ellipse cx="696" cy="25" rx="0.5" ry="0.5" fill="none" stroke="white" stroke-width="1" />
<ellipse cx="757" cy="208" rx="0.5" ry="0.5" fill="none" stroke="white" stroke-width="1" />
<ellipse cx="16" cy="135" rx="0.5" ry="0.5" fill="none" stroke="white" stroke-width="1" />
<ellipse cx="695" cy="156" rx="0.5" ry="0.5" fill="none" stroke="white" stroke-width="1" />
<ellipse cx="352" cy="253" rx="0.5" ry="0.5" fill="none" stroke="white" stroke-width="1" />
<ellipse cx="262" cy="299" rx="0.5" ry="0.5" fill="none" stroke="white" stroke-width="1" />
<ellipse cx="53" cy="256" rx="0.5" ry="0.5" fill="none" stroke="white" stroke-width="1" />
<ellipse cx="4" cy="144" rx="0.5" ry="0.5" fill="none" stroke="white" stroke-width="1" />
<ellipse cx="828" cy="53" rx="0.5" ry="0.5" fill="none" stroke="white" stroke-width="1" />
<ellipse cx="790" cy="297" rx="0.5" ry="0.5" fill="none" stroke="white" stroke-width="1" />
<ellipse cx="370" cy="92" rx="0.5" ry="0.5" fill="none" stroke="white" stroke-width="1" />
<ellipse cx="254" cy="142" rx="0.5" ry="0.5" fill="none" stroke="white" stroke-width="1" />
<ellipse cx="749" cy="306" rx="0.5" ry="0.5" fill="none" stroke="white" stroke-width="1" />
<ellipse cx="319" cy="44" rx="0.5" ry="0.5" fill="none" stroke="white" stroke-width="1" />
<ellipse cx="138" cy="236" rx="0.5" ry="0.5" fill="none" stroke="white" stroke-width="1" />
<ellipse cx="277" cy="311" rx="0.5" ry="0.5" fill="none" stroke="white" stroke-width="1" />
<ellipse cx="802" cy="380" rx="0.5" ry="0.5" fill="none" stroke="white" stroke-width="1" />
<ellipse cx="782" cy="42" rx="0.5" ry="0.5" fill="none" stroke="white" stroke-width="1" />
<ellipse cx="439" cy="337" rx="0.5" ry="0.5" fill="none" stroke="white" stroke-width="1" />
<ellipse cx="625" cy="154" rx="0.5" ry="0.5" fill="none" stroke="white" stroke-width="1" />
<ellipse cx="715" cy="128" rx="0.5" ry="0.5" fill="none" stroke="white" stroke-width="1" />
<ellipse cx="157" cy="352" rx="0.5" ry="0.5" fill="none" stroke="white" stroke-width="1" />
<ellipse cx="221" cy="396" rx="0.5" ry="0.5" fill="none" stroke="white" stroke-width="1" />
<ellipse cx="561" cy="147" rx="0.5" ry="0.5" fill="none" stroke="white" stroke-width="1" />
<ellipse cx="23" cy="42" rx="0.5" ry="0.5" fill="none" stroke="white" stroke-width="1" />
<ellipse cx="627" cy="81" rx="0.5" ry="0.5" fill="none" stroke="white" stroke-width="1" />
<ellipse cx="183" cy="151" rx="0.5" ry="0.5" fill="none" stroke="white" stroke-width="1" />
<ellipse cx="612" cy="216" rx="0.5" ry="0.5" fill="none" stroke="white" stroke-width="1" />
<ellipse cx="95" cy="265" rx="0.5" ry="0.5" fill="none" stroke="white" stroke-width="1" />
<ellipse cx="832" cy="270" rx="0.5" ry="0.5" fill="none" stroke="white" stroke-width="1" />
<ellipse cx="23" cy="27" rx="0.5" ry="0.5" fill="none" stroke="white" stroke-width="1" />
<ellipse cx="395" cy="303" rx="0.5" ry="0.5" fill="none" stroke="white" stroke-width="1" />
<ellipse cx="761" cy="290" rx="0.5" ry="0.5" fill="none" stroke="white" stroke-width="1" />
<ellipse cx="843" cy="314" rx="0.5" ry="0.5" fill="none" stroke="white" stroke-width="1" />
<ellipse cx="862" cy="180" rx="0.5" ry="0.5" fill="none" stroke="white" stroke-width="1" />
<ellipse cx="51" cy="138" rx="0.5" ry="0.5" fill="none" stroke="white" stroke-width="1" />
<ellipse cx="12" cy="15" rx="0.5" ry="0.5" fill="none" stroke="white" stroke-width="1" />
<ellipse cx="369" cy="124" rx="0.5" ry="0.5" fill="none" stroke="white" stroke-width="1" />
<ellipse cx="753" cy="259" rx="0.5" ry="0.5" fill="none" stroke="white" stroke-width="1" />
<ellipse cx="566" cy="223" rx="0.5" ry="0.5" fill="none" stroke="white" stroke-width="1" />
<ellipse cx="677" cy="71" rx="0.5" ry="0.5" fill="none" stroke="white" stroke-width="1" />
<ellipse cx="694" cy="243" rx="0.5" ry="0.5" fill="none" stroke="white" stroke-width="1" />
<ellipse cx="418" cy="135" rx="0.5" ry="0.5" fill="none" stroke="white" stroke-width="1" />
<ellipse cx="274" cy="363" rx="0.5" ry="0.5" fill="none" stroke="white" stroke-width="1" />
<ellipse cx="191" cy="38" rx="0.5" ry="0.5" fill="none" stroke="white" stroke-width="1" />
<ellipse cx="696" cy="266" rx="0.5" ry="0.5" fill="none" stroke="white" stroke-width="1" />
<ellipse cx="601" cy="184" rx="0.5" ry="0.5" fill="none" stroke="white" stroke-width="1" />
<ellipse cx="120" cy="300" rx="0.5" ry="0.5" fill="none" stroke="white" stroke-width="1" />
<ellipse cx="269" cy="242" rx="0.5" ry="0.5" fill="none" stroke="white" stroke-width="1" />
<ellipse cx="16" cy="328" rx="0.5" ry="0.5" fill="none" stroke="white" stroke-width="1" />
<ellipse cx="834" cy="169" rx="0.5" ry="0.5" fill="none" stroke="white" stroke-width="1" />
<ellipse cx="125" cy="120" rx="0.5" ry="0.5" fill="none" stroke="white" stroke-width="1" />
<ellipse cx="72" cy="98" rx="0.5" ry="0.5" fill="none" stroke="white" stroke-width="1" />
<ellipse cx="572" cy="315" rx="0.5" ry="0.5" fill="none" stroke="white" stroke-width="1" />
<ellipse cx="785" cy="308" rx="0.5" ry="0.5" fill="none" stroke="white" stroke-width="1" />
<ellipse cx="752" cy="233" rx="0.5" ry="0.5" fill="none" stroke="white" stroke-width="1" />
<ellipse cx="86" cy="99" rx="0.5" ry="0.5" fill="none" stroke="white" stroke-width="1" />
<ellipse cx="67" cy="56" rx="0.5" ry="0.5" fill="none" stroke="white" stroke-width="1" />
<ellipse cx="775" cy="135" rx="0.5" ry="0.5" fill="none" stroke="white" stroke-width="1" />
<ellipse cx="698" cy="195" rx="0.5" ry="0.5" fill="none" stroke="white" stroke-width="1" />
<ellipse cx="272" cy="384" rx="0.5" ry="0.5" fill="none" stroke="white" stroke-width="1" />
<ellipse cx="358" cy="149" rx="0.5" ry="0.5" fill="none" stroke="white" stroke-width="1" />
<ellipse cx="150" cy="231" rx="0.5" ry="0.5" fill="none" stroke="white" stroke-width="1" />
<ellipse cx="421" cy="90" rx="0.5" ry="0.5" fill="none" stroke="white" stroke-width="1" />
<ellipse cx="844" cy="138" rx="0.5" ry="0.5" fill="none" stroke="white" stroke-width="1" />
<ellipse cx="45" cy="127" rx="0.5" ry="0.5" fill="none" stroke="white" stroke-width="1" />
<ellipse cx="164" cy="159" rx="0.5" ry="0.5" fill="none" stroke="white" stroke-width="1" />
<ellipse cx="624" cy="108" rx="0.5" ry="0.5" fill="none" stroke="white" stroke-width="1" />
<ellipse cx="63" cy="335" rx="0.5" ry="0.5" fill="none" stroke="white" stroke-width="1" />
<ellipse cx="84" cy="227" rx="0.5" ry="0.5" fill="none" stroke="white" stroke-width="1" />
<ellipse cx="517" cy="38" rx="0.5" ry="0.5" fill="none" stroke="white" stroke-width="1" />
<ellipse cx="885" cy="336" rx="0.5" ry="0.5" fill="none" stroke="white" stroke-width="1" />
<ellipse cx="316" cy="239" rx="0.5" ry="0.5" fill="none" stroke="white" stroke-width="1" />
<ellipse cx="565" cy="140" rx="0.5" ry="0.5" fill="none" stroke="white" stroke-width="1" />
<ellipse cx="141" cy="123" rx="0.5" ry="0.5" fill="none" stroke="white" stroke-width="1" />
<ellipse cx="352" cy="7" rx="0.5" ry="0.5" fill="none" stroke="white" stroke-width="1" />
<ellipse cx="233" cy="353" rx="0.5" ry="0.5" fill="none" stroke="white" stroke-width="1" />
<ellipse cx="777" cy="130" rx="0.5" ry="0.5" fill="none" stroke="white" stroke-width="1" />
<ellipse cx="268" cy="169" rx="0.5" ry="0.5" fill="none" stroke="white" stroke-width="1" />
<ellipse cx="500" cy="53" rx="0.5" ry="0.5" fill="none" stroke="white" stroke-width="1" />
<ellipse cx="480" cy="231" rx="0.5" ry="0.5" fill="none" stroke="white" stroke-width="1" />
<ellipse cx="517" cy="245" rx="0.5" ry="0.5" fill="none" stroke="white" stroke-width="1" />
<ellipse cx="778" cy="293" rx="0.5" ry="0.5" fill="none" stroke="white" stroke-width="1" />
<ellipse cx="575" cy="358" rx="0.5" ry="0.5" fill="none" stroke="white" stroke-width="1" />
<ellipse cx="160" cy="266" rx="0.5" ry="0.5" fill="none" stroke="white" stroke-width="1" />
<ellipse cx="43" cy="302" rx="0.5" ry="0.5" fill="none" stroke="white" stroke-width="1" />
<ellipse cx="773" cy="161" rx="0.5" ry="0.5" fill="none" stroke="white" stroke-width="1" />
<ellipse cx="563" cy="153" rx="0.5" ry="0.5" fill="none" stroke="white" stroke-width="1" />
<ellipse cx="317" cy="130" rx="0.5" ry="0.5" fill="none" stroke="white" stroke-width="1" />
<ellipse cx="336" cy="118" rx="0.5" ry="0.5" fill="none" stroke="white" stroke-width="1" />
<ellipse cx="597" cy="281" rx="0.5" ry="0.5" fill="none" stroke="white" stroke-width="1" />
<ellipse cx="745" cy="240" rx="0.5" ry="0.5" fill="none" stroke="white" stroke-width="1" />
<ellipse cx="853" cy="179" rx="0.5" ry="0.5" fill="none" stroke="white" stroke-width="1" />
<ellipse cx="512" cy="281" rx="0.5" ry="0.5" fill="none" stroke="white" stroke-width="1" />
<ellipse cx="607" cy="207" rx="0.5" ry="0.5" fill="none" stroke="white" stroke-width="1" />
<ellipse cx="217" cy="190" rx="0.5" ry="0.5" fill="none" stroke="white" stroke-width="1" />
<ellipse cx="472" cy="37" rx="0.5" ry="0.5" fill="none" stroke="white" stroke-width="1" />
<ellipse cx="159" cy="255" rx="0.5" ry="0.5" fill="none" stroke="white" stroke-width="1" />
<ellipse cx="450.0" cy="590.0" rx="180" ry="180" fill="none" stroke="white" stroke-width="1" />
<ellipse cx="450.0" cy="590.0" rx="200" ry="200" fill="none" stroke="white" stroke-width="1" />
<ellipse cx="450.0" cy="590.0" rx="220" ry="220" fill="none" stroke="white" stroke-width="1" />
<path d="M700.0,589.9999999999999 L800.0,589.9999999999999" fill="none" stroke="white" stroke-width="1" />
<path d="M696.2019382530519,546.5879555832672 L735.5942483735403,539.64202847659" fill="none" stroke="white" stroke-width="1" />
<path d="M684.9231551964771,504.4949641685829 L778.8924172750679,470.292949836016" fill="none" stroke="white" stroke-width="1" />
<path d="M666.5063509461096,464.9999999999999 L701.1473670974872,444.9999999999999" fill="none" stroke="white" stroke-width="1" />
<path d="M641.5111107797445,429.3030975783651 L718.1155550916422,365.02433660971116" fill="none" stroke="white" stroke-width="1" />
<path d="M610.6969024216348,398.4888892202555 L636.4084068090964,367.84711149549634" fill="none" stroke="white" stroke-width="1" />
<path d="M575.0,373.49364905389035 L625.0,286.8911086754465" fill="none" stroke="white" stroke-width="1" />
<path d="M535.505035831417,355.0768448035229 L549.1858415644438,317.48913997208655" fill="none" stroke="white" stroke-width="1" />
<path d="M493.4120444167325,343.79806174694795 L510.77686218342546,245.31728644572718" fill="none" stroke="white" stroke-width="1" />
<path d="M449.99999999999994,340.0 L449.99999999999994,300.0" fill="none" stroke="white" stroke-width="1" />
<path d="M406.58795558326744,343.798061746948 L389.22313781657436,245.31728644572718" fill="none" stroke="white" stroke-width="1" />
<path d="M364.49496416858267,355.07684480352293 L350.8141584355559,317.4891399720866" fill="none" stroke="white" stroke-width="1" />
<path d="M324.9999999999999,373.4936490538904 L274.9999999999999,286.89110867544656" fill="none" stroke="white" stroke-width="1" />
<path d="M289.3030975783651,398.4888892202555 L263.5915931909035,367.8471114954964" fill="none" stroke="white" stroke-width="1" />
<path d="M258.4888892202555,429.30309757836517 L181.88444490835764,365.02433660971127" fill="none" stroke="white" stroke-width="1" />
<path d="M233.49364905389035,465.0 L198.8526329025128,445.0" fill="none" stroke="white" stroke-width="1" />
<path d="M215.0768448035229,504.49496416858284 L121.10758272493206,470.29294983601596" fill="none" stroke="white" stroke-width="1" />
<path d="M203.798061746948,546.5879555832673 L164.40575162645968,539.6420284765902" fill="none" stroke="white" stroke-width="1" />
<path d="M104.0,101.4 L104.0,130.8" fill="none" stroke="white" stroke-width="2" />
<path d="M104.0,130.8 L120.8,130.8" fill="none" stroke="white" stroke-width="2" />
<path d="M130.0,105.4 L131.4,106.8 L132.8,105.4 L131.4,104.0 L130.0,105.4" fill="none" stroke="white" stroke-width="2" />
<path d="M131.4,111.19999999999999 L131.4,130.8" fill="none" stroke="white" stroke-width="2" />
<path d="M149.0,111.19999999999999 L149.0,130.8" fill="none" stroke="white" stroke-width="2" />
<path d="M149.0,116.8 L153.2,112.6 L156.0,111.19999999999999 L160.2,111.19999999999999 L163.0,112.6 L164.4,116.8 L164.4,130.8" fill="none" stroke="white" stroke-width="2" />
<path d="M172.2,119.6 L189.0,119.6 L189.0,116.8 L187.6,114.0 L186.2,112.6 L183.4,111.19999999999999 L179.2,111.19999999999999 L176.4,112.6 L173.6,115.4 L172.2,119.6 L172.2,122.39999999999999 L173.6,126.6 L176.4,129.39999999999998 L179.2,130.8 L183.4,130.8 L186.2,129.39999999999998 L189.0,126.6" fill="none" stroke="white" stroke-width="2" />
<path d="M206.0,101.4 L206.0,130.8" fill="none" stroke="white" stroke-width="2" />
<path d="M206.0,101.4 L215.8,101.4 L220.0,102.8 L222.8,105.6 L224.2,108.4 L225.6,112.6 L225.6,119.6 L224.2,123.8 L222.8,126.6 L220.0,129.39999999999998 L215.8,130.8 L206.0,130.8" fill="none" stroke="white" stroke-width="2" />
<path d="M237.0,111.19999999999999 L237.0,130.8" fill="none" stroke="white" stroke-width="2" />
<path d="M237.0,121.19999999999999 L238.4,117.0 L241.2,114.19999999999999 L244.0,112.8 L248.2,112.8" fill="none" stroke="white" stroke-width="2" />
<path d="M254.2,119.6 L271.0,119.6 L271.0,116.8 L269.6,114.0 L268.2,112.6 L265.4,111.19999999999999 L261.2,111.19999999999999 L258.4,112.6 L255.6,115.4 L254.2,119.6 L254.2,122.39999999999999 L255.6,126.6 L258.4,129.39999999999998 L261.2,130.8 L265.4,130.8 L268.2,129.39999999999998 L271.0,126.6" fill="none" stroke="white" stroke-width="2" />
<path d="M299.0,111.19999999999999 L299.0,130.8" fill="none" stroke="white" stroke-width="2" />
<path d="M299.0,115.4 L296.2,112.6 L293.4,111.19999999999999 L289.2,111.19999999999999 L286.4,112.6 L283.6,115.4 L282.2,119.6 L282.2,122.39999999999999 L283.6,126.6 L286.4,129.39999999999998 L289.2,130.8 L293.4,130.8 L296.2,129.39999999999998 L299.0,126.6" fill="none" stroke="white" stroke-width="2" />
<path d="M317.0,111.19999999999999 L317.0,130.8" fill="none" stroke="white" stroke-width="2" />
<path d="M317.0,116.8 L321.2,112.6 L324.0,111.19999999999999 L328.2,111.19999999999999 L331.0,112.6 L332.4,116.8 L332.4,130.8" fill="none" stroke="white" stroke-width="2" />
<path d="M332.4,116.8 L336.6,112.6 L339.4,111.19999999999999 L343.6,111.19999999999999 L346.4,112.6 L347.8,116.8 L347.8,130.8" fill="none" stroke="white" stroke-width="2" />
</svg>