<?xml version="1.0" encoding="UTF-8"?>
<svg xmlns="http://www.w3.org/2000/svg" xmlns:xlink="http://www.w3.org/1999/xlink"
     width="900mm" height="500mm" viewBox="0 0 900 500">
<defs>
</defs>
<rect x="0" y="0" width="100%" height="100%" fill="black" />
<ellipse cx="38" cy="383" rx="0.5" ry="0.5" fill="none" stroke="white" stroke-width="1" />
<ellipse cx="659" cy="366" rx="0.5" ry="0.5" fill="none" stroke="white" stroke-width="1" />
<ellipse cx="422" cy="358" rx="0.5" ry="0.5" fill="none" stroke="white" stroke-width="1" />
<ellipse cx="372" cy="87" rx="0.5" ry="0.5" fill="none" stroke="white" stroke-width="1" />
<ellipse cx="620" cy="334" rx="0.5" ry="0.5" fill="none" stroke="white" stroke-width="1" />
<ellipse cx="41" cy="264" rx="0.5" ry="0.5" fill="none" stroke="white" stroke-width="1" />
<ellipse cx="529" cy="98" rx="0.5" ry="0.5" fill="none" stroke="white" stroke-width="1" />
<ellipse cx="346" cy="286" rx="0.5" ry="0.5" fill="none" stroke="white" stroke-width="1" />
<ellipse cx="710" cy="137" rx="0.5" ry="0.5" fill="none" stroke="white" stroke-width="1" />
<ellipse cx="419" cy="54" rx="0.5" ry="0.5" fill="none" stroke="white" stroke-width="1" />
<ellipse cx="309" cy="303" rx="0.5" ry="0.5" fill="none" stroke="white" stroke-width="1" />
<ellipse cx="394" cy="345" rx="0.5" ry="0.5" fill="none" stroke="white" stroke-width="1" />
<ellipse cx="269" cy="219" rx="0.5" ry="0.5" fill="none" stroke="white" stroke-width="1" />
<ellipse cx="635" cy="137" rx="0.5" ry="0.5" fill="none" stroke="white" stroke-width="1" />
<ellipse cx="68" cy="205" rx="0.5" ry="0.5" fill="none" stroke="white" stroke-width="1" />
<ellipse cx="549" cy="181" rx="0.5" ry="0.5" fill="none" stroke="white" stroke-width="1" />
<ellipse cx="726" cy="87" rx="0.5" ry="0.5" fill="none" stroke="white" stroke-width="1" />
<ellipse cx="692" cy="86" rx="0.5" ry="0.5" fill="none" stroke="white" stroke-width="1" />
<ellipse cx="386" cy="149" rx="0.5" ry="0.5" fill="none" stroke="white" stroke-width="1" />
<ellipse cx="48" cy="298" rx="0.5" ry="0.5" fill="none" stroke="white" stroke-width="1" />
<ellipse cx="552" cy="260" rx="0.5" ry="0.5" fill="none" stroke="white" stroke-width="1" />
<ellipse cx="566" cy="142" rx="0.5" ry="0.5" fill="none" stroke="white" stroke-width="1" />
<ellipse cx="79" cy="360" rx="0.5" ry="0.5" fill="none" stroke="white" stroke-width="1" />
<ellipse cx="881" cy="234" rx="0.5" ry="0.5" fill="none" stroke="white" stroke-width="1" />
<ellipse cx="372" cy="11" rx="0.5" ry="0.5" fill="none" stroke="white" stroke-width="1" />
<ellipse cx="282" cy="290" rx="0.5" ry="0.5" fill="none" stroke="white" stroke-width="1" />
<ellipse cx="772" cy="195" rx="0.5" ry="0.5" fill="none" stroke="white" stroke-width="1" />
<ellipse cx="51" cy="190" rx="0.5" ry="0.5" fill="none" stroke="white" stroke-width="1" />
<ellipse cx="201" cy="227" rx="0.5" ry="0.5" fill="none" stroke="white" stroke-width="1" />
<ellipse cx="782" cy="274" rx="0.5" ry="0.5" fill="none" stroke="white" stroke-width="1" />
<ellipse cx="737" cy="170" rx="0.5" ry="0.5" fill="none" stroke="white" stroke-width="1" />
<ellipse cx="606" cy="117" rx="0.5" ry="0.5" fill="none" stroke="white" stroke-width="1" />
<ellipse cx="760" cy="173" rx="0.5" ry="0.5" fill="none" stroke="white" stroke-width="1" />
<ellipse cx="732" cy="36" rx="0.5" ry="0.5" fill="none" stroke="white" stroke-width="1" />
<ellipse cx="760" cy="125" rx="0.5" ry="0.5" fill="none" stroke="white" stroke-width="1" />
<ellipse cx="803" cy="201" rx="0.5" ry="0.5" fill="none" stroke="white" stroke-width="1" />
<ellipse cx="240" cy="142" rx="0.5" ry="0.5" fill="none" stroke="white" stroke-width="1" />
<ellipse cx="444" cy="324" rx="0.5" ry="0.5" fill="none" stroke="white" stroke-width="1" />
<ellipse cx="512" cy="51" rx="0.5" ry="0.5" fill="none" stroke="white" stroke-width="1" />
<ellipse cx="131" cy="140" rx="0.5" ry="0.5" fill="none" stroke="white" stroke-width="1" />
<ellipse cx="878" cy="247" rx="0.5" ry="0.5" fill="none" stroke="white" stroke-width="1" />
<ellipse cx="320" cy="234" rx="0.5" ry="0.5" fill="none" stroke="white" stroke-width="1" />
<ellipse cx="115" cy="129" rx="0.5" ry="0.5" fill="none" stroke="white" stroke-width="1" />
<ellipse cx="534" cy="32" rx="0.5" ry="0.5" fill="none" stroke="white" stroke-width="1" />
<ellipse cx="800" cy="252" rx="0.5" ry="0.5" fill="none" stroke="white" stroke-width="1" />
<ellipse cx="533" cy="112" rx="0.5" ry="0.5" fill="none" stroke="white" stroke-width="1" />
<ellipse cx="441" cy="60" rx="0.5" ry="0.5" fill="none" stroke="white" stroke-width="1" />
<ellipse cx="257" cy="138" rx="0.5" ry="0.5" fill="none" stroke="white" stroke-width="1" />
<ellipse cx="620" cy="85" rx="0.5" ry="0.5" fill="none" stroke="white" stroke-width="1" />
<ellipse cx="334" cy="397" rx="0.5" ry="0.5" fill="none" stroke="white" stroke-width="1" />
<ellipse cx="292" cy="307" rx="0.5" ry="0.5" fill="none" stroke="white" stroke-width="1" />
<ellipse cx="761" cy="8" rx="0.5" ry="0.5" fill="none" stroke="white" stroke-width="1" />
<ellipse cx="618" cy="38" rx="0.5" ry="0.5" fill="none" stroke="white" stroke-width="1" />
<ellipse cx="330" cy="78" rx="0.5" ry="0.5" fill="none" stroke="white" stroke-width="1" />
<ellipse cx="344" cy="41" rx="0.5" ry="0.5" fill="none" stroke="white" stroke-width="1" />
<ellipse cx="362" cy="304" rx="0.5" ry="0.5" fill="none" stroke="white" stroke-width="1" />
<ellipse cx="409" cy="395" rx="0.5" ry="0.5" fill="none" stroke="white" stroke-width="1" />
<ellipse cx="139" cy="333" rx="0.5" ry="0.5" fill="none" stroke="white" stroke-width="1" />
<ellipse cx="337" cy="370" rx="0.5" ry="0.5" fill="none" stroke="white" stroke-width="1" />
<ellipse cx="396" cy="389" rx="0.5" ry="0.5" fill="none" stroke="white" stroke-width="1" />
<ellipse cx="72" cy="192" rx="0.5" ry="0.5" fill="none" stroke="white" stroke-width="1" />
<ellipse cx="817" cy="160" rx="0.5" ry="0.5" fill="none" stroke="white" stroke-width="1" />
<ellipse cx="725" cy="73" rx="0.5" ry="0.5" fill="none" stroke="white" stroke-width="1" />
<ellipse cx="133" cy="288" rx="0.5" ry="0.5" fill="none" stroke="white" stroke-width="1" />
<ellipse cx="85" cy="331" rx="0.5" ry="0.5" fill="none" stroke="white" stroke-width="1" />
<ellipse cx="186" cy="57" rx="0.5" ry="0.5" fill="none" stroke="white" stroke-width="1" />
<ellipse cx="494" cy="190" rx="0.5" ry="0.5" fill="none" stroke="white" stroke-width="1" />
<ellipse cx="350" cy="374" rx="0.5" ry="0.5" fill="none" stroke="white" stroke-width="1" />
<ellipse cx="324" cy="294" rx="0.5" ry="0.5" fill="none" stroke="white" stroke-width="1" />
<ellipse cx="896" cy="204" rx="0.5" ry="0.5" fill="none" stroke="white" stroke-width="1" />
<ellipse cx="149" cy="377" rx="0.5" ry="0.5" fill="none" stroke="white" stroke-width="1" />
<ellipse cx="338" cy="210" rx="0.5" ry="0.5" fill="none" stroke="white" stroke-width="1" />
<ellipse cx="337" cy="348" rx="0.5" ry="0.5" fill="none" stroke="white" stroke-width="1" />
<ellipse cx="655" cy="65" rx="0.5" ry="0.5" fill="none" stroke="white" stroke-width="1" />
<ellipse cx="179" cy="311" rx="0.5" ry="0.5" fill="none" stroke="white" stroke-width="1" />
<ellipse cx="643" cy="228" rx="0.5" ry="0.5" fill="none" stroke="white" stroke-width="1" />
<ellipse cx="492" cy="125" rx="0.5" ry="0.5" fill="none" stroke="white" stroke-width="1" />
<ellipse cx="623" cy="229" rx="0.5" ry="0.5" fill="none" stroke="white" stroke-width="1" />
<ellipse cx="504" cy="48" rx="0.5" ry="0.5" fill="none" stroke="white" stroke-width="1" />
<ellipse cx="729" cy="338" rx="0.5" ry="0.5" fill="none" stroke="white" stroke-width="1" />
<ellipse cx="584" cy="12" rx="0.5" ry="0.5" fill="none" stroke="white" stroke-width="1" />
<ellipse cx="899" cy="230" rx="0.5" ry="0.5" fill="none" stroke="white" stroke-width="1" />
<ellipse cx="298" cy="119" rx="0.5" ry="0.5" fill="none" stroke="white" stroke-width="1" />
<ellipse cx="318" cy="230" rx="0.5" ry="0.5" fill="none" stroke="white" stroke-width="1" />
<ellipse cx="734" cy="119" rx="0.5" ry="0.5" fill="none" stroke="white" stroke-width="1" />
<ellipse cx="891" cy="4" rx="0.5" ry="0.5" fill="none" stroke="white" stroke-width="1" />
<ellipse cx="484" cy="115" rx="0.5" ry="0.5" fill="none" stroke="white" stroke-width="1" />
<ellipse cx="692" cy="202" rx="0.5" ry="0.5" fill="none" stroke="white" stroke-width="1" />
<ellipse cx="222" cy="309" rx="0.5" ry="0.5" fill="none" stroke="white" stroke-width="1" />
<ellipse cx="246" cy="340" rx="0.5" ry="0.5" fill="none" stroke="white" stroke-width="1" />
<ellipse cx="655" cy="276" rx="0.5" ry="0.5" fill="none" stroke="white" stroke-width="1" />
<ellipse cx="156" cy="37" rx="0.5" ry="0.5" fill="none" stroke="white" stroke-width="1" />
<ellipse cx="330" cy="88" rx="0.5" ry="0.5" fill="none" stroke="white" stroke-width="1" />
<ellipse cx="76" cy="154" rx="0.5" ry="0.5" fill="none" stroke="white" stroke-width="1" />
<ellipse cx="92" cy="309" rx="0.5" ry="0.5" fill="none" stroke="white" stroke-width="1" />
<ellipse cx="351" cy="236" rx="0.5" ry="0.5" fill="none" stroke="white" stroke-width="1" />
<ellipse cx="791" cy="49" rx="0.5" ry="0.5" fill="none" stroke="white" stroke-width="1" />
<ellipse cx="455" cy="378" rx="0.5" ry="0.5" fill="none" stroke="white" stroke-width="1" />
<ellipse cx="356" cy="118" rx="0.5" ry="0.5" fill="none" stroke="white" stroke-width="1" />
<ellipse cx="405" cy="26" rx="0.5" ry="0.5" fill="none" stroke="white" stroke-width="1" />
<ellipse cx="450.0" cy="590.0" rx="180" ry="180" fill="none" stroke="white" stroke-width="1" />
<ellipse cx="450.0" cy="590.0" rx="200" ry="200" fill="none" stroke="white" stroke-width="1" />
<ellipse cx="450.0" cy="590.0" rx="220" ry="220" fill="none" stroke="white" stroke-width="1" />
<path d="M700.0,589.9999999999999 L800.0,589.9999999999999" fill="none" stroke="white" stroke-width="1" />
<path d="M696.2019382530519,546.5879555832672 L735.5942483735403,539.64202847659" fill="none" stroke="white" stroke-width="1" />
<path d="M684.9231551964771,504.4949641685829 L778.8924172750679,470.292949836016" fill="none" stroke="white" stroke-width="1" />
<path d="M666.5063509461096,464.9999999999999 L701.1473670974872,444.9999999999999" fill="none" stroke="white" stroke-width="1" />
<path d="M641.5111107797445,429.3030975783651 L718.1155550916422,365.02433660971116" fill="none" stroke="white" stroke-width="1" />
<path d="M610.6969024216348,398.4888892202555 L636.4084068090964,367.84711149549634" fill="none" stroke="white" stroke-width="1" />
<path d="M575.0,373.49364905389035 L625.0,286.8911086754465" fill="none" stroke="white" stroke-width="1" />
<path d="M535.505035831417,355.0768448035229 L549.1858415644438,317.48913997208655" fill="none" stroke="white" stroke-width="1" />
<path d="M493.4120444167325,343.79806174694795 L510.77686218342546,245.31728644572718" fill="none" stroke="white" stroke-width="1" />
<path d="M449.99999999999994,340.0 L449.99999999999994,300.0" fill="none" stroke="white" stroke-width="1" />
<path d="M406.58795558326744,343.798061746948 L389.22313781657436,245.31728644572718" fill="none" stroke="white" stroke-width="1" />
<path d="M364.49496416858267,355.07684480352293 L350.8141584355559,317.4891399720866" fill="none" stroke="white" stroke-width="1" />
<path d="M324.9999999999999,373.4936490538904 L274.9999999999999,286.89110867544656" fill="none" stroke="white" stroke-width="1" />
<path d="M289.3030975783651,398.4888892202555 L263.5915931909035,367.8471114954964" fill="none" stroke="white" stroke-width="1" />
<path d="M258.4888892202555,429.30309757836517 L181.88444490835764,365.02433660971127" fill="none" stroke="white" stroke-width="1" />
<path d="M233.49364905389035,465.0 L198.8526329025128,445.0" fill="none" stroke="white" stroke-width="1" />
<path d="M215.0768448035229,504.49496416858284 L121.10758272493206,470.29294983601596" fill="none" stroke="white" stroke-width="1" />
<path d="M203.798061746948,546.5879555832673 L164.40575162645968,539.6420284765902" fill="none" stroke="white" stroke-width="1" />
<path d="M104.0,101.4 L104.0,130.8" fill="none" stroke="white" stroke-width="2" />
<path d="M104.0,130.8 L120.8,130.8" fill="none" stroke="white" stroke-width="2" />
<path d="M130.0,105.4 L131.4,106.8 L132.8,105.4 L131.4,104.0 L130.0,105.4" fill="none" stroke="white" stroke-width="2" />
<path d="M131.4,111.19999999999999 L131.4,130.8" fill="none" stroke="white" stroke-width="2" />
<path d="M149.0,111.19999999999999 L149.0,130.8" fill="none" stroke="white" stroke-width="2" />
<path d="M149.0,116.8 L153.2,112.6 L156.0,111.19999999999999 L160.2,111.19999999999999 L163.0,112.6 L164.4,116.8 L164.4,130.8" fill="none" stroke="white" stroke-width="2" />
<path d="M172.2,119.6 L189.0,119.6 L189.0,116.8 L187.6,114.0 L186.2,112.6 L183.4,111.19999999999999 L179.2,111.19999999999999 L176.4,112.6 L173.6,115.4 L172.2,119.6 L172.2,122.39999999999999 L173.6,126.6 L176.4,129.39999999999998 L179.2,130.8 L183.4,130.8 L186.2,129.39999999999998 L189.0,126.6" fill="none" stroke="white" stroke-width="2" />
<path d="M206.0,101.4 L206.0,130.8" fill="none" stroke="white" stroke-width="2" />
<path d="M206.0,101.4 L215.8,101.4 L220.0,102.8 L222.8,105.6 L224.2,108.4 L225.6,112.6 L225.6,119.6 L224.2,123.8 L222.8,126.6 L220.0,129.39999999999998 L215.8,130.8 L206.0,130.8" fill="none" stroke="white" stroke-width="2" />
<path d="M237.0,111.19999999999999 L237.0,130.8" fill="none" stroke="white" stroke-width="2" />
<path d="M237.0,121.19999999999999 L238.4,117.0 L241.2,114.19999999999999 L244.0,112.8 L248.2,112.8" fill="none" stroke="white" stroke-width="2" />
<path d="M254.2,119.6 L271.0,119.6 L271.0,116.8 L269.6,114.0 L268.2,112.6 L265.4,111.19999999999999 L261.2,111.19999999999999 L258.4,112.6 L255.6,115.4 L254.2,119.6 L254.2,122.39999999999999 L255.6,126.6 L258.4,129.39999999999998 L261.2,130.8 L265.4,130.8 L268.2,129.39999999999998 L271.0,126.6" fill="none" stroke="white" stroke-width="2" />
<path d="M299.0,111.19999999999999 L299.0,130.8" fill="none" stroke="white" stroke-width="2" />
<path d="M299.0,115.4 L296.2,112.6 L293.4,111.19999999999999 L289.2,111.19999999999999 L286.4,112.6 L283.6,115.4 L282.2,119.6 L282.2,122.39999999999999 L283.6,126.6 L286.4,129.39999999999998 L289.2,130.8 L293.4,130.8 L296.2,129.39999999999998 L299.0,126.6" fill="none" stroke="white" stroke-width="2" />
<path d="M317.0,111.19999999999999 L317.0,130.8" fill="none" stroke="white" stroke-width="2" />
<path d="M317.0,116.8 L321.2,112.6 L324.0,111.19999999999999 L328.2,111.19999999999999 L331.0,112.6 L332.4,116.8 L332.4,130.8" fill="none" stroke="white" stroke-width="2" />
<path d="M332.4,116.8 L336.6,112.6 L339.4,111.19999999999999 L343.6,111.19999999999999 L346.4,112.6 L347.8,116.8 L347.8,130.8" fill="none" stroke="white" stroke-width="2" />
</svg>