<?xml version="1.0" encoding="UTF-8"?>
<svg xmlns="http://www.w3.org/2000/svg" xmlns:xlink="http://www.w3.org/1999/xlink"
     width="900" height="500" viewBox="0 0 900 500">
<defs>
</defs>
<rect x="0" y="0" width="100%" height="100%" fill="black" />
<ellipse cx="47" cy="55" rx="0.5" ry="0.5" fill="none" stroke="white" stroke-width="1" />
<ellipse cx="490" cy="49" rx="0.5" ry="0.5" fill="none" stroke="white" stroke-width="1" />
<ellipse cx="467" cy="284" rx="0.5" ry="0.5" fill="none" stroke="white" stroke-width="1" />
<ellipse cx="631" cy="1" rx="0.5" ry="0.5" fill="none" stroke="white" stroke-width="1" />
<ellipse cx="324" cy="114" rx="0.5" ry="0.5" fill="none" stroke="white" stroke-width="1" />
<ellipse cx="365" cy="292" rx="0.5" ry="0.5" fill="none" stroke="white" stroke-width="1" />
<ellipse cx="186" cy="58" rx="0.5" ry="0.5" fill="none" stroke="white" stroke-width="1" />
<ellipse cx="57" cy="139" rx="0.5" ry="0.5" fill="none" stroke="white" stroke-width="1" />
<ellipse cx="576" cy="237" rx="0.5" ry="0.5" fill="none" stroke="white" stroke-width="1" />
<ellipse cx="534" cy="144" rx="0.5" ry="0.5" fill="none" stroke="white" stroke-width="1" />
<ellipse cx="138" cy="218" rx="0.5" ry="0.5" fill="none" stroke="white" stroke-width="1" />
<ellipse cx="414" cy="360" rx="0.5" ry="0.5" fill="none" stroke="white" stroke-width="1" />
<ellipse cx="352" cy="82" rx="0.5" ry="0.5" fill="none" stroke="white" stroke-width="1" />
<ellipse cx="365" cy="197" rx="0.5" ry="0.5" fill="none" stroke="white" stroke-width="1" />
<ellipse cx="190" cy="208" rx="0.5" ry="0.5" fill="none" stroke="white" stroke-width="1" />
<ellipse cx="332" cy="350" rx="0.5" ry="0.5" fill="none" stroke="white" stroke-width="1" />
<ellipse cx="160" cy="163" rx="0.5" ry="0.5" fill="none" stroke="white" stroke-width="1" />
<ellipse cx="668" cy="94" rx="0.5" ry="0.5" fill="none" stroke="white" stroke-width="1" />
<ellipse cx="307" cy="109" rx="0.5" ry="0.5" fill="none" stroke="white" stroke-width="1" />
<ellipse cx="833" cy="71" rx="0.5" ry="0.5" fill="none" stroke="white" stroke-width="1" />
<ellipse cx="29" cy="400" rx="0.5" ry="0.5" fill="none" stroke="white" stroke-width="1" />
<ellipse cx="662" cy="299" rx="0.5" ry="0.5" fill="none" stroke="white" stroke-width="1" />
<ellipse cx="69" cy="256" rx="0.5" ry="0.5" fill="none" stroke="white" stroke-width="1" />
<ellipse cx="265" cy="279" rx="0.5" ry="0.5" fill="none" stroke="white" stroke-width="1" />
<ellipse cx="211" cy="360" rx="0.5" ry="0.5" fill="none" stroke="white" stroke-width="1" />
<ellipse cx="188" cy="286" rx="0.5" ry="0.5" fill="none" stroke="white" stroke-width="1" />
<ellipse cx="178" cy="364" rx="0.5" ry="0.5" fill="none" stroke="white" stroke-width="1" />
<ellipse cx="846" cy="75" rx="0.5" ry="0.5" fill="none" stroke="white" stroke-width="1" />
<ellipse cx="28" cy="77" rx="0.5" ry="0.5" fill="none" stroke="white" stroke-width="1" />
<ellipse cx="859" cy="370" rx="0.5" ry="0.5" fill="none" stroke="white" stroke-width="1" />
<ellipse cx="829" cy="87" rx="0.5" ry="0.5" fill="none" stroke="white" stroke-width="1" />
<ellipse cx="562" cy="323" rx="0.5" ry="0.5" fill="none" stroke="white" stroke-width="1" />
<ellipse cx="12" cy="45" rx="0.5" ry="0.5" fill="none" stroke="white" stroke-width="1" />
<ellipse cx="394" cy="180" rx="0.5" ry="0.5" fill="none" stroke="white" stroke-width="1" />
<ellipse cx="855" cy="234" rx="0.5" ry="0.5" fill="none" stroke="white" stroke-width="1" />
<ellipse cx="366" cy="280" rx="0.5" ry="0.5" fill="none" stroke="white" stroke-width="1" />
<ellipse cx="342" cy="69" rx="0.5" ry="0.5" fill="none" stroke="white" stroke-width="1" />
<ellipse cx="794" cy="77" rx="0.5" ry="0.5" fill="none" stroke="white" stroke-width="1" />
<ellipse cx="66" cy="73" rx="0.5" ry="0.5" fill="none" stroke="white" stroke-width="1" />
<ellipse cx="811" cy="226" rx="0.5" ry="0.5" fill="none" stroke="white" stroke-width="1" />
<ellipse cx="362" cy="352" rx="0.5" ry="0.5" fill="none" stroke="white" stroke-width="1" />
<ellipse cx="869" cy="250" rx="0.5" ry="0.5" fill="none" stroke="white" stroke-width="1" />
<ellipse cx="747" cy="271" rx="0.5" ry="0.5" fill="none" stroke="white" stroke-width="1" />
<ellipse cx="541" cy="49" rx="0.5" ry="0.5" fill="none" stroke="white" stroke-width="1" />
<ellipse cx="217" cy="266" rx="0.5" ry="0.5" fill="none" stroke="white" stroke-width="1" />
<ellipse cx="157" cy="123" rx="0.5" ry="0.5" fill="none" stroke="white" stroke-width="1" />
<ellipse cx="258" cy="389" rx="0.5" ry="0.5" fill="none" stroke="white" stroke-width="1" />
<ellipse cx="828" cy="37" rx="0.5" ry="0.5" fill="none" stroke="white" stroke-width="1" />
<ellipse cx="319" cy="111" rx="0.5" ry="0.5" fill="none" stroke="white" stroke-width="1" />
<ellipse cx="688" cy="395" rx="0.5" ry="0.5" fill="none" stroke="white" stroke-width="1" />
<ellipse cx="754" cy="235" rx="0.5" ry="0.5" fill="none" stroke="white" stroke-width="1" />
<ellipse cx="170" cy="88" rx="0.5" ry="0.5" fill="none" stroke="white" stroke-width="1" />
<ellipse cx="201" cy="211" rx="0.5" ry="0.5" fill="none" stroke="white" stroke-width="1" />
<ellipse cx="322" cy="308" rx="0.5" ry="0.5" fill="none" stroke="white" stroke-width="1" />
<ellipse cx="764" cy="28" rx="0.5" ry="0.5" fill="none" stroke="white" stroke-width="1" />
<ellipse cx="237" cy="67" rx="0.5" ry="0.5" fill="none" stroke="white" stroke-width="1" />
<ellipse cx="666" cy="181" rx="0.5" ry="0.5" fill="none" stroke="white" stroke-width="1" />
<ellipse cx="630" cy="30" rx="0.5" ry="0.5" fill="none" stroke="white" stroke-width="1" />
<ellipse cx="232" cy="131" rx="0.5" ry="0.5" fill="none" stroke="white" stroke-width="1" />
<ellipse cx="125" cy="180" rx="0.5" ry="0.5" fill="none" stroke="white" stroke-width="1" />
<ellipse cx="894" cy="176" rx="0.5" ry="0.5" fill="none" stroke="white" stroke-width="1" />
<ellipse cx="439" cy="354" rx="0.5" ry="0.5" fill="none" stroke="white" stroke-width="1" />
<ellipse cx="426" cy="83" rx="0.5" ry="0.5" fill="none" stroke="white" stroke-width="1" />
<ellipse cx="271" cy="197" rx="0.5" ry="0.5" fill="none" stroke="white" stroke-width="1" />
<ellipse cx="856" cy="242" rx="0.5" ry="0.5" fill="none" stroke="white" stroke-width="1" />
<ellipse cx="338" cy="276" rx="0.5" ry="0.5" fill="none" stroke="white" stroke-width="1" />
<ellipse cx="16" cy="92" rx="0.5" ry="0.5" fill="none" stroke="white" stroke-width="1" />
<ellipse cx="178" cy="277" rx="0.5" ry="0.5" fill="none" stroke="white" stroke-width="1" />
<ellipse cx="165" cy="70" rx="0.5" ry="0.5" fill="none" stroke="white" stroke-width="1" />
<ellipse cx="629" cy="286" rx="0.5" ry="0.5" fill="none" stroke="white" stroke-width="1" />
<ellipse cx="529" cy="83" rx="0.5" ry="0.5" fill="none" stroke="white" stroke-width="1" />
<ellipse cx="760" cy="306" rx="0.5" ry="0.5" fill="none" stroke="white" stroke-width="1" />
<ellipse cx="583" cy="119" rx="0.5" ry="0.5" fill="none" stroke="white" stroke-width="1" />
<ellipse cx="313" cy="240" rx="0.5" ry="0.5" fill="none" stroke="white" stroke-width="1" />
<ellipse cx="122" cy="138" rx="0.5" ry="0.5" fill="none" stroke="white" stroke-width="1" />
<ellipse cx="97" cy="130" rx="0.5" ry="0.5" fill="none" stroke="white" stroke-width="1" />
<ellipse cx="626" cy="46" rx="0.5" ry="0.5" fill="none" stroke="white" stroke-width="1" />
<ellipse cx="836" cy="120" rx="0.5" ry="0.5" fill="none" stroke="white" stroke-width="1" />
<ellipse cx="629" cy="125" rx="0.5" ry="0.5" fill="none" stroke="white" stroke-width="1" />
<ellipse cx="845" cy="250" rx="0.5" ry="0.5" fill="none" stroke="white" stroke-width="1" />
<ellipse cx="189" cy="37" rx="0.5" ry="0.5" fill="none" stroke="white" stroke-width="1" />
<ellipse cx="589" cy="3" rx="0.5" ry="0.5" fill="none" stroke="white" stroke-width="1" />
<ellipse cx="792" cy="339" rx="0.5" ry="0.5" fill="none" stroke="white" stroke-width="1" />
<ellipse cx="155" cy="288" rx="0.5" ry="0.5" fill="none" stroke="white" stroke-width="1" />
<ellipse cx="369" cy="40" rx="0.5" ry="0.5" fill="none" stroke="white" stroke-width="1" />
<ellipse cx="417" cy="235" rx="0.5" ry="0.5" fill="none" stroke="white" stroke-width="1" />
<ellipse cx="452" cy="298" rx="0.5" ry="0.5" fill="none" stroke="white" stroke-width="1" />
<ellipse cx="18" cy="356" rx="0.5" ry="0.5" fill="none" stroke="white" stroke-width="1" />
<ellipse cx="461" cy="212" rx="0.5" ry="0.5" fill="none" stroke="white" stroke-width="1" />
<ellipse cx="791" cy="34" rx="0.5" ry="0.5" fill="none" stroke="white" stroke-width="1" />
<ellipse cx="279" cy="231" rx="0.5" ry="0.5" fill="none" stroke="white" stroke-width="1" />
<ellipse cx="359" cy="349" rx="0.5" ry="0.5" fill="none" stroke="white" stroke-width="1" />
<ellipse cx="515" cy="234" rx="0.5" ry="0.5" fill="none" stroke="white" stroke-width="1" />
<ellipse cx="660" cy="91" rx="0.5" ry="0.5" fill="none" stroke="white" stroke-width="1" />
<ellipse cx="712" cy="57" rx="0.5" ry="0.5" fill="none" stroke="white" stroke-width="1" />
<ellipse cx="364" cy="74" rx="0.5" ry="0.5" fill="none" stroke="white" stroke-width="1" />
<ellipse cx="353" cy="355" rx="0.5" ry="0.5" fill="none" stroke="white" stroke-width="1" />
<ellipse cx="530" cy="219" rx="0.5" ry="0.5" fill="none" stroke="white" stroke-width="1" />
<ellipse cx="645" cy="95" rx="0.5" ry="0.5" fill="none" stroke="white" stroke-width="1" />
<ellipse cx="255" cy="67" rx="0.5" ry="0.5" fill="none" stroke="white" stroke-width="1" />
<ellipse cx="450.0" cy="590.0" rx="180" ry="180" fill="none" stroke="white" stroke-width="1" />
<ellipse cx="450.0" cy="590.0" rx="200" ry="200" fill="none" stroke="white" stroke-width="1" />
<ellipse cx="450.0" cy="590.0" rx="220" ry="220" fill="none" stroke="white" stroke-width="1" />
<path d="M700.0,589.9999999999999 L800.0,589.9999999999999" fill="none" stroke="white" stroke-width="1" />
<path d="M696.2019382530519,546.5879555832672 L735.5942483735403,539.64202847659" fill="none" stroke="white" stroke-width="1" />
<path d="M684.9231551964771,504.4949641685829 L778.8924172750679,470.292949836016" fill="none" stroke="white" stroke-width="1" />
<path d="M666.5063509461096,464.9999999999999 L701.1473670974872,444.9999999999999" fill="none" stroke="white" stroke-width="1" />
<path d="M641.5111107797445,429.3030975783651 L718.1155550916422,365.02433660971116" fill="none" stroke="white" stroke-width="1" />
<path d="M610.6969024216348,398.4888892202555 L636.4084068090964,367.84711149549634" fill="none" stroke="white" stroke-width="1" />
<path d="M575.0,373.49364905389035 L625.0,286.8911086754465" fill="none" stroke="white" stroke-width="1" />
<path d="M535.505035831417,355.0768448035229 L549.1858415644438,317.48913997208655" fill="none" stroke="white" stroke-width="1" />
<path d="M493.4120444167325,343.79806174694795 L510.77686218342546,245.31728644572718" fill="none" stroke="white" stroke-width="1" />
<path d="M449.99999999999994,340.0 L449.99999999999994,300.0" fill="none" stroke="white" stroke-width="1" />
<path d="M406.58795558326744,343.798061746948 L389.22313781657436,245.31728644572718" fill="none" stroke="white" stroke-width="1" />
<path d="M364.49496416858267,355.07684480352293 L350.8141584355559,317.4891399720866" fill="none" stroke="white" stroke-width="1" />
<path d="M324.9999999999999,373.4936490538904 L274.9999999999999,286.89110867544656" fill="none" stroke="white" stroke-width="1" />
<path d="M289.3030975783651,398.4888892202555 L263.5915931909035,367.8471114954964" fill="none" stroke="white" stroke-width="1" />
<path d="M258.4888892202555,429.30309757836517 L181.88444490835764,365.02433660971127" fill="none" stroke="white" stroke-width="1" />
<path d="M233.49364905389035,465.0 L198.8526329025128,445.0" fill="none" stroke="white" stroke-width="1" />
<path d="M215.0768448035229,504.49496416858284 L121.10758272493206,470.29294983601596" fill="none" stroke="white" stroke-width="1" />
<path d="M203.798061746948,546.5879555832673 L164.40575162645968,539.6420284765902" fill="none" stroke="white" stroke-width="1" />
<path d="M44.0,18.0 L44.0,39.0" fill="none" stroke="white" stroke-width="1" />
<path d="M44.0,39.0 L56.0,39.0" fill="none" stroke="white" stroke-width="1" />
<path d="M59.0,18.0 L60.0,19.0 L61.0,18.0 L60.0,17.0 L59.0,18.0" fill="none" stroke="white" stroke-width="1" />
<path d="M60.0,25.0 L60.0,39.0" fill="none" stroke="white" stroke-width="1" />
<path d="M74.0,25.0 L74.0,39.0" fill="none" stroke="white" stroke-width="1" />
<path d="M74.0,29.0 L77.0,26.0 L79.0,25.0 L82.0,25.0 L84.0,26.0 L85.0,29.0 L85.0,39.0" fill="none" stroke="white" stroke-width="1" />
<path d="M93.0,31.0 L105.0,31.0 L105.0,29.0 L104.0,27.0 L103.0,26.0 L101.0,25.0 L98.0,25.0 L96.0,26.0 L94.0,28.0 L93.0,31.0 L93.0,33.0 L94.0,36.0 L96.0,38.0 L98.0,39.0 L101.0,39.0 L103.0,38.0 L105.0,36.0" fill="none" stroke="white" stroke-width="1" />
<path d="M114.0,18.0 L114.0,39.0" fill="none" stroke="white" stroke-width="1" />
<path d="M114.0,18.0 L121.0,18.0 L124.0,19.0 L126.0,21.0 L127.0,23.0 L128.0,26.0 L128.0,31.0 L127.0,34.0 L126.0,36.0 L124.0,38.0 L121.0,39.0 L114.0,39.0" fill="none" stroke="white" stroke-width="1" />
<path d="M134.0,25.0 L134.0,39.0" fill="none" stroke="white" stroke-width="1" />
<path d="M134.0,31.0 L135.0,28.0 L137.0,26.0 L139.0,25.0 L142.0,25.0" fill="none" stroke="white" stroke-width="1" />
<path d="M151.0,31.0 L163.0,31.0 L163.0,29.0 L162.0,27.0 L161.0,26.0 L159.0,25.0 L156.0,25.0 L154.0,26.0 L152.0,28.0 L151.0,31.0 L151.0,33.0 L152.0,36.0 L154.0,38.0 L156.0,39.0 L159.0,39.0 L161.0,38.0 L163.0,36.0" fill="none" stroke="white" stroke-width="1" />
<path d="M183.0,25.0 L183.0,39.0" fill="none" stroke="white" stroke-width="1" />
<path d="M183.0,28.0 L181.0,26.0 L179.0,25.0 L176.0,25.0 L174.0,26.0 L172.0,28.0 L171.0,31.0 L171.0,33.0 L172.0,36.0 L174.0,38.0 L176.0,39.0 L179.0,39.0 L181.0,38.0 L183.0,36.0" fill="none" stroke="white" stroke-width="1" />
<path d="M196.0,25.0 L196.0,39.0" fill="none" stroke="white" stroke-width="1" />
<path d="M196.0,29.0 L199.0,26.0 L201.0,25.0 L204.0,25.0 L206.0,26.0 L207.0,29.0 L207.0,39.0" fill="none" stroke="white" stroke-width="1" />
<path d="M207.0,29.0 L210.0,26.0 L212.0,25.0 L215.0,25.0 L217.0,26.0 L218.0,29.0 L218.0,39.0" fill="none" stroke="white" stroke-width="1" />
</svg>