<?xml version="1.0" encoding="UTF-8"?>
<svg xmlns="http://www.w3.org/2000/svg" xmlns:xlink="http://www.w3.org/1999/xlink"
     width="1000" height="700" viewBox="0 0 1000 700">
<defs>
</defs>
<rect x="0" y="0" width="100%" height="100%" fill="black" />
<ellipse cx="368" cy="58" rx="0.5" ry="0.5" fill="none" stroke="white" stroke-width="1" />
<ellipse cx="563" cy="12" rx="0.5" ry="0.5" fill="none" stroke="white" stroke-width="1" />
<ellipse cx="913" cy="323" rx="0.5" ry="0.5" fill="none" stroke="white" stroke-width="1" />
<ellipse cx="738" cy="397" rx="0.5" ry="0.5" fill="none" stroke="white" stroke-width="1" />
<ellipse cx="925" cy="134" rx="0.5" ry="0.5" fill="none" stroke="white" stroke-width="1" />
<ellipse cx="785" cy="144" rx="0.5" ry="0.5" fill="none" stroke="white" stroke-width="1" />
<ellipse cx="584" cy="186" rx="0.5" ry="0.5" fill="none" stroke="white" stroke-width="1" />
<ellipse cx="742" cy="268" rx="0.5" ry="0.5" fill="none" stroke="white" stroke-width="1" />
<ellipse cx="452" cy="293" rx="0.5" ry="0.5" fill="none" stroke="white" stroke-width="1" />
<ellipse cx="437" cy="248" rx="0.5" ry="0.5" fill="none" stroke="white" stroke-width="1" />
<ellipse cx="994" cy="171" rx="0.5" ry="0.5" fill="none" stroke="white" stroke-width="1" />
<ellipse cx="828" cy="385" rx="0.5" ry="0.5" fill="none" stroke="white" stroke-width="1" />
<ellipse cx="911" cy="245" rx="0.5" ry="0.5" fill="none" stroke="white" stroke-width="1" />
<ellipse cx="233" cy="384" rx="0.5" ry="0.5" fill="none" stroke="white" stroke-width="1" />
<ellipse cx="335" cy="40" rx="0.5" ry="0.5" fill="none" stroke="white" stroke-width="1" />
<ellipse cx="760" cy="17" rx="0.5" ry="0.5" fill="none" stroke="white" stroke-width="1" />
<ellipse cx="918" cy="126" rx="0.5" ry="0.5" fill="none" stroke="white" stroke-width="1" />
<ellipse cx="532" cy="354" rx="0.5" ry="0.5" fill="none" stroke="white" stroke-width="1" />
<ellipse cx="135" cy="190" rx="0.5" ry="0.5" fill="none" stroke="white" stroke-width="1" />
<ellipse cx="730" cy="348" rx="0.5" ry="0.5" fill="none" stroke="white" stroke-width="1" />
<ellipse cx="423" cy="266" rx="0.5" ry="0.5" fill="none" stroke="white" stroke-width="1" />
<ellipse cx="313" cy="99" rx="0.5" ry="0.5" fill="none" stroke="white" stroke-width="1" />
<ellipse cx="0" cy="12" rx="0.5" ry="0.5" fill="none" stroke="white" stroke-width="1" />
<ellipse cx="617" cy="271" rx="0.5" ry="0.5" fill="none" stroke="white" stroke-width="1" />
<ellipse cx="50" cy="390" rx="0.5" ry="0.5" fill="none" stroke="white" stroke-width="1" />
<ellipse cx="24" cy="304" rx="0.5" ry="0.5" fill="none" stroke="white" stroke-width="1" />
<ellipse cx="733" cy="236" rx="0.5" ry="0.5" fill="none" stroke="white" stroke-width="1" />
<ellipse cx="356" cy="375" rx="0.5" ry="0.5" fill="none" stroke="white" stroke-width="1" />
<ellipse cx="270" cy="74" rx="0.5" ry="0.5" fill="none" stroke="white" stroke-width="1" />
<ellipse cx="558" cy="208" rx="0.5" ry="0.5" fill="none" stroke="white" stroke-width="1" />
<ellipse cx="889" cy="292" rx="0.5" ry="0.5" fill="none" stroke="white" stroke-width="1" />
<ellipse cx="104" cy="264" rx="0.5" ry="0.5" fill="none" stroke="white" stroke-width="1" />
<ellipse cx="281" cy="72" rx="0.5" ry="0.5" fill="none" stroke="white" stroke-width="1" />
<ellipse cx="465" cy="74" rx="0.5" ry="0.5" fill="none" stroke="white" stroke-width="1" />
<ellipse cx="208" cy="279" rx="0.5" ry="0.5" fill="none" stroke="white" stroke-width="1" />
<ellipse cx="987" cy="314" rx="0.5" ry="0.5" fill="none" stroke="white" stroke-width="1" />
<ellipse cx="225" cy="80" rx="0.5" ry="0.5" fill="none" stroke="white" stroke-width="1" />
<ellipse cx="475" cy="196" rx="0.5" ry="0.5" fill="none" stroke="white" stroke-width="1" />
<ellipse cx="649" cy="51" rx="0.5" ry="0.5" fill="none" stroke="white" stroke-width="1" />
<ellipse cx="179" cy="114" rx="0.5" ry="0.5" fill="none" stroke="white" stroke-width="1" />
<ellipse cx="506" cy="352" rx="0.5" ry="0.5" fill="none" stroke="white" stroke-width="1" />
<ellipse cx="181" cy="51" rx="0.5" ry="0.5" fill="none" stroke="white" stroke-width="1" />
<ellipse cx="654" cy="320" rx="0.5" ry="0.5" fill="none" stroke="white" stroke-width="1" />
<ellipse cx="319" cy="109" rx="0.5" ry="0.5" fill="none" stroke="white" stroke-width="1" />
<ellipse cx="667" cy="80" rx="0.5" ry="0.5" fill="none" stroke="white" stroke-width="1" />
<ellipse cx="311" cy="305" rx="0.5" ry="0.5" fill="none" stroke="white" stroke-width="1" />
<ellipse cx="957" cy="100" rx="0.5" ry="0.5" fill="none" stroke="white" stroke-width="1" />
<ellipse cx="334" cy="97" rx="0.5" ry="0.5" fill="none" stroke="white" stroke-width="1" />
<ellipse cx="456" cy="216" rx="0.5" ry="0.5" fill="none" stroke="white" stroke-width="1" />
<ellipse cx="502" cy="102" rx="0.5" ry="0.5" fill="none" stroke="white" stroke-width="1" />
<ellipse cx="323" cy="123" rx="0.5" ry="0.5" fill="none" stroke="white" stroke-width="1" />
<ellipse cx="446" cy="122" rx="0.5" ry="0.5" fill="none" stroke="white" stroke-width="1" />
<ellipse cx="188" cy="358" rx="0.5" ry="0.5" fill="none" stroke="white" stroke-width="1" />
<ellipse cx="673" cy="382" rx="0.5" ry="0.5" fill="none" stroke="white" stroke-width="1" />
<ellipse cx="775" cy="352" rx="0.5" ry="0.5" fill="none" stroke="white" stroke-width="1" />
<ellipse cx="679" cy="290" rx="0.5" ry="0.5" fill="none" stroke="white" stroke-width="1" />
<ellipse cx="878" cy="224" rx="0.5" ry="0.5" fill="none" stroke="white" stroke-width="1" />
<ellipse cx="164" cy="172" rx="0.5" ry="0.5" fill="none" stroke="white" stroke-width="1" />
<ellipse cx="187" cy="137" rx="0.5" ry="0.5" fill="none" stroke="white" stroke-width="1" />
<ellipse cx="146" cy="80" rx="0.5" ry="0.5" fill="none" stroke="white" stroke-width="1" />
<ellipse cx="893" cy="27" rx="0.5" ry="0.5" fill="none" stroke="white" stroke-width="1" />
<ellipse cx="286" cy="311" rx="0.5" ry="0.5" fill="none" stroke="white" stroke-width="1" />
<ellipse cx="709" cy="104" rx="0.5" ry="0.5" fill="none" stroke="white" stroke-width="1" />
<ellipse cx="622" cy="178" rx="0.5" ry="0.5" fill="none" stroke="white" stroke-width="1" />
<ellipse cx="468" cy="158" rx="0.5" ry="0.5" fill="none" stroke="white" stroke-width="1" />
<ellipse cx="524" cy="283" rx="0.5" ry="0.5" fill="none" stroke="white" stroke-width="1" />
<ellipse cx="561" cy="294" rx="0.5" ry="0.5" fill="none" stroke="white" stroke-width="1" />
<ellipse cx="326" cy="329" rx="0.5" ry="0.5" fill="none" stroke="white" stroke-width="1" />
<ellipse cx="42" cy="278" rx="0.5" ry="0.5" fill="none" stroke="white" stroke-width="1" />
<ellipse cx="312" cy="98" rx="0.5" ry="0.5" fill="none" stroke="white" stroke-width="1" />
<ellipse cx="972" cy="287" rx="0.5" ry="0.5" fill="none" stroke="white" stroke-width="1" />
<ellipse cx="981" cy="107" rx="0.5" ry="0.5" fill="none" stroke="white" stroke-width="1" />
<ellipse cx="627" cy="65" rx="0.5" ry="0.5" fill="none" stroke="white" stroke-width="1" />
<ellipse cx="581" cy="14" rx="0.5" ry="0.5" fill="none" stroke="white" stroke-width="1" />
<ellipse cx="69" cy="175" rx="0.5" ry="0.5" fill="none" stroke="white" stroke-width="1" />
<ellipse cx="465" cy="174" rx="0.5" ry="0.5" fill="none" stroke="white" stroke-width="1" />
<ellipse cx="694" cy="194" rx="0.5" ry="0.5" fill="none" stroke="white" stroke-width="1" />
<ellipse cx="918" cy="73" rx="0.5" ry="0.5" fill="none" stroke="white" stroke-width="1" />
<ellipse cx="256" cy="39" rx="0.5" ry="0.5" fill="none" stroke="white" stroke-width="1" />
<ellipse cx="754" cy="250" rx="0.5" ry="0.5" fill="none" stroke="white" stroke-width="1" />
<ellipse cx="337" cy="108" rx="0.5" ry="0.5" fill="none" stroke="white" stroke-width="1" />
<ellipse cx="183" cy="182" rx="0.5" ry="0.5" fill="none" stroke="white" stroke-width="1" />
<ellipse cx="80" cy="268" rx="0.5" ry="0.5" fill="none" stroke="white" stroke-width="1" />
<ellipse cx="506" cy="255" rx="0.5" ry="0.5" fill="none" stroke="white" stroke-width="1" />
<ellipse cx="634" cy="43" rx="0.5" ry="0.5" fill="none" stroke="white" stroke-width="1" />
<ellipse cx="215" cy="56" rx="0.5" ry="0.5" fill="none" stroke="white" stroke-width="1" />
<ellipse cx="827" cy="256" rx="0.5" ry="0.5" fill="none" stroke="white" stroke-width="1" />
<ellipse cx="228" cy="344" rx="0.5" ry="0.5" fill="none" stroke="white" stroke-width="1" />
<ellipse cx="564" cy="187" rx="0.5" ry="0.5" fill="none" stroke="white" stroke-width="1" />
<ellipse cx="41" cy="64" rx="0.5" ry="0.5" fill="none" stroke="white" stroke-width="1" />
<ellipse cx="373" cy="396" rx="0.5" ry="0.5" fill="none" stroke="white" stroke-width="1" />
<ellipse cx="396" cy="305" rx="0.5" ry="0.5" fill="none" stroke="white" stroke-width="1" />
<ellipse cx="20" cy="83" rx="0.5" ry="0.5" fill="none" stroke="white" stroke-width="1" />
<ellipse cx="303" cy="266" rx="0.5" ry="0.5" fill="none" stroke="white" stroke-width="1" />
<ellipse cx="987" cy="349" rx="0.5" ry="0.5" fill="none" stroke="white" stroke-width="1" />
<ellipse cx="683" cy="236" rx="0.5" ry="0.5" fill="none" stroke="white" stroke-width="1" />
<ellipse cx="933" cy="27" rx="0.5" ry="0.5" fill="none" stroke="white" stroke-width="1" />
<ellipse cx="900" cy="222" rx="0.5" ry="0.5" fill="none" stroke="white" stroke-width="1" />
<ellipse cx="330" cy="368" rx="0.5" ry="0.5" fill="none" stroke="white" stroke-width="1" />
<ellipse cx="289" cy="96" rx="0.5" ry="0.5" fill="none" stroke="white" stroke-width="1" />
<ellipse cx="500.0" cy="790.0" rx="180" ry="180" fill="none" stroke="white" stroke-width="1" />
<ellipse cx="500.0" cy="790.0" rx="200" ry="200" fill="none" stroke="white" stroke-width="1" />
<ellipse cx="500.0" cy="790.0" rx="220" ry="220" fill="none" stroke="white" stroke-width="1" />
<path d="M750.0,789.9999999999999 L950.0,789.9999999999999" fill="none" stroke="white" stroke-width="1" />
<path d="M746.2019382530519,746.5879555832672 L844.6827135542728,729.2231378165741" fill="none" stroke="white" stroke-width="1" />
<path d="M734.9231551964771,704.4949641685829 L922.8616793536588,636.0909355034491" fill="none" stroke="white" stroke-width="1" />
<path d="M716.5063509461096,664.9999999999999 L803.1088913245535,614.9999999999999" fill="none" stroke="white" stroke-width="1" />
<path d="M691.5111107797445,629.3030975783652 L844.71999940354,500.7455756410572" fill="none" stroke="white" stroke-width="1" />
<path d="M660.6969024216348,598.4888892202555 L724.9756633902887,521.8844449083576" fill="none" stroke="white" stroke-width="1" />
<path d="M625.0,573.4936490538903 L725.0,400.28856829700266" fill="none" stroke="white" stroke-width="1" />
<path d="M585.505035831417,555.0768448035228 L619.7070501639839,461.107582724932" fill="none" stroke="white" stroke-width="1" />
<path d="M543.4120444167324,543.798061746948 L578.1416799501185,346.83651114450635" fill="none" stroke="white" stroke-width="1" />
<path d="M499.99999999999994,540.0 L499.99999999999994,440.0" fill="none" stroke="white" stroke-width="1" />
<path d="M456.58795558326744,543.798061746948 L421.85832004988134,346.8365111445064" fill="none" stroke="white" stroke-width="1" />
<path d="M414.49496416858267,555.0768448035229 L380.29294983601574,461.1075827249321" fill="none" stroke="white" stroke-width="1" />
<path d="M374.9999999999999,573.4936490538904 L274.9999999999998,400.2885682970027" fill="none" stroke="white" stroke-width="1" />
<path d="M339.3030975783651,598.4888892202555 L275.02433660971116,521.8844449083578" fill="none" stroke="white" stroke-width="1" />
<path d="M308.4888892202555,629.3030975783652 L155.28000059645984,500.7455756410573" fill="none" stroke="white" stroke-width="1" />
<path d="M283.49364905389035,665.0 L196.8911086754465,615.0" fill="none" stroke="white" stroke-width="1" />
<path d="M265.07684480352293,704.4949641685828 L77.13832064634119,636.0909355034491" fill="none" stroke="white" stroke-width="1" />
<path d="M253.798061746948,746.5879555832673 L155.31728644572718,729.2231378165743" fill="none" stroke="white" stroke-width="1" />
</svg>