<?xml version="1.0" encoding="UTF-8"?>
<svg xmlns="http://www.w3.org/2000/svg" xmlns:xlink="http://www.w3.org/1999/xlink"
     width="900mm" height="500mm" viewBox="0 0 900 500">
<defs>
</defs>
<rect x="0" y="0" width="100%" height="100%" fill="black" />
<ellipse cx="62" cy="219" rx="0.5" ry="0.5" fill="none" stroke="white" stroke-width="1" />
<ellipse cx="497" cy="266" rx="0.5" ry="0.5" fill="none" stroke="white" stroke-width="1" />
<ellipse cx="317" cy="179" rx="0.5" ry="0.5" fill="none" stroke="white" stroke-width="1" />
<ellipse cx="551" cy="325" rx="0.5" ry="0.5" fill="none" stroke="white" stroke-width="1" />
<ellipse cx="237" cy="257" rx="0.5" ry="0.5" fill="none" stroke="white" stroke-width="1" />
<ellipse cx="529" cy="11" rx="0.5" ry="0.5" fill="none" stroke="white" stroke-width="1" />
<ellipse cx="519" cy="377" rx="0.5" ry="0.5" fill="none" stroke="white" stroke-width="1" />
<ellipse cx="242" cy="52" rx="0.5" ry="0.5" fill="none" stroke="white" stroke-width="1" />
<ellipse cx="742" cy="62" rx="0.5" ry="0.5" fill="none" stroke="white" stroke-width="1" />
<ellipse cx="87" cy="199" rx="0.5" ry="0.5" fill="none" stroke="white" stroke-width="1" />
<ellipse cx="760" cy="390" rx="0.5" ry="0.5" fill="none" stroke="white" stroke-width="1" />
<ellipse cx="710" cy="69" rx="0.5" ry="0.5" fill="none" stroke="white" stroke-width="1" />
<ellipse cx="59" cy="86" rx="0.5" ry="0.5" fill="none" stroke="white" stroke-width="1" />
<ellipse cx="265" cy="216" rx="0.5" ry="0.5" fill="none" stroke="white" stroke-width="1" />
<ellipse cx="859" cy="242" rx="0.5" ry="0.5" fill="none" stroke="white" stroke-width="1" />
<ellipse cx="388" cy="196" rx="0.5" ry="0.5" fill="none" stroke="white" stroke-width="1" />
<ellipse cx="717" cy="136" rx="0.5" ry="0.5" fill="none" stroke="white" stroke-width="1" />
<ellipse cx="851" cy="371" rx="0.5" ry="0.5" fill="none" stroke="white" stroke-width="1" />
<ellipse cx="128" cy="274" rx="0.5" ry="0.5" fill="none" stroke="white" stroke-width="1" />
<ellipse cx="737" cy="191" rx="0.5" ry="0.5" fill="none" stroke="white" stroke-width="1" />
<ellipse cx="564" cy="255" rx="0.5" ry="0.5" fill="none" stroke="white" stroke-width="1" />
<ellipse cx="533" cy="140" rx="0.5" ry="0.5" fill="none" stroke="white" stroke-width="1" />
<ellipse cx="552" cy="111" rx="0.5" ry="0.5" fill="none" stroke="white" stroke-width="1" />
<ellipse cx="91" cy="239" rx="0.5" ry="0.5" fill="none" stroke="white" stroke-width="1" />
<ellipse cx="630" cy="381" rx="0.5" ry="0.5" fill="none" stroke="white" stroke-width="1" />
<ellipse cx="427" cy="222" rx="0.5" ry="0.5" fill="none" stroke="white" stroke-width="1" />
<ellipse cx="672" cy="285" rx="0.5" ry="0.5" fill="none" stroke="white" stroke-width="1" />
<ellipse cx="772" cy="189" rx="0.5" ry="0.5" fill="none" stroke="white" stroke-width="1" />
<ellipse cx="258" cy="85" rx="0.5" ry="0.5" fill="none" stroke="white" stroke-width="1" />
<ellipse cx="177" cy="85" rx="0.5" ry="0.5" fill="none" stroke="white" stroke-width="1" />
<ellipse cx="419" cy="86" rx="0.5" ry="0.5" fill="none" stroke="white" stroke-width="1" />
<ellipse cx="536" cy="216" rx="0.5" ry="0.5" fill="none" stroke="white" stroke-width="1" />
<ellipse cx="416" cy="375" rx="0.5" ry="0.5" fill="none" stroke="white" stroke-width="1" />
<ellipse cx="641" cy="208" rx="0.5" ry="0.5" fill="none" stroke="white" stroke-width="1" />
<ellipse cx="387" cy="399" rx="0.5" ry="0.5" fill="none" stroke="white" stroke-width="1" />
<ellipse cx="16" cy="14" rx="0.5" ry="0.5" fill="none" stroke="white" stroke-width="1" />
<ellipse cx="428" cy="303" rx="0.5" ry="0.5" fill="none" stroke="white" stroke-width="1" />
<ellipse cx="542" cy="266" rx="0.5" ry="0.5" fill="none" stroke="white" stroke-width="1" />
<ellipse cx="85" cy="207" rx="0.5" ry="0.5" fill="none" stroke="white" stroke-width="1" />
<ellipse cx="49" cy="70" rx="0.5" ry="0.5" fill="none" stroke="white" stroke-width="1" />
<ellipse cx="266" cy="363" rx="0.5" ry="0.5" fill="none" stroke="white" stroke-width="1" />
<ellipse cx="301" cy="328" rx="0.5" ry="0.5" fill="none" stroke="white" stroke-width="1" />
<ellipse cx="25" cy="53" rx="0.5" ry="0.5" fill="none" stroke="white" stroke-width="1" />
<ellipse cx="188" cy="301" rx="0.5" ry="0.5" fill="none" stroke="white" stroke-width="1" />
<ellipse cx="24" cy="248" rx="0.5" ry="0.5" fill="none" stroke="white" stroke-width="1" />
<ellipse cx="364" cy="106" rx="0.5" ry="0.5" fill="none" stroke="white" stroke-width="1" />
<ellipse cx="835" cy="261" rx="0.5" ry="0.5" fill="none" stroke="white" stroke-width="1" />
<ellipse cx="380" cy="72" rx="0.5" ry="0.5" fill="none" stroke="white" stroke-width="1" />
<ellipse cx="597" cy="346" rx="0.5" ry="0.5" fill="none" stroke="white" stroke-width="1" />
<ellipse cx="100" cy="375" rx="0.5" ry="0.5" fill="none" stroke="white" stroke-width="1" />
<ellipse cx="123" cy="327" rx="0.5" ry="0.5" fill="none" stroke="white" stroke-width="1" />
<ellipse cx="577" cy="115" rx="0.5" ry="0.5" fill="none" stroke="white" stroke-width="1" />
<ellipse cx="757" cy="55" rx="0.5" ry="0.5" fill="none" stroke="white" stroke-width="1" />
<ellipse cx="716" cy="33" rx="0.5" ry="0.5" fill="none" stroke="white" stroke-width="1" />
<ellipse cx="108" cy="103" rx="0.5" ry="0.5" fill="none" stroke="white" stroke-width="1" />
<ellipse cx="235" cy="106" rx="0.5" ry="0.5" fill="none" stroke="white" stroke-width="1" />
<ellipse cx="363" cy="348" rx="0.5" ry="0.5" fill="none" stroke="white" stroke-width="1" />
<ellipse cx="26" cy="289" rx="0.5" ry="0.5" fill="none" stroke="white" stroke-width="1" />
<ellipse cx="129" cy="281" rx="0.5" ry="0.5" fill="none" stroke="white" stroke-width="1" />
<ellipse cx="575" cy="111" rx="0.5" ry="0.5" fill="none" stroke="white" stroke-width="1" />
<ellipse cx="349" cy="128" rx="0.5" ry="0.5" fill="none" stroke="white" stroke-width="1" />
<ellipse cx="609" cy="183" rx="0.5" ry="0.5" fill="none" stroke="white" stroke-width="1" />
<ellipse cx="559" cy="106" rx="0.5" ry="0.5" fill="none" stroke="white" stroke-width="1" />
<ellipse cx="158" cy="205" rx="0.5" ry="0.5" fill="none" stroke="white" stroke-width="1" />
<ellipse cx="762" cy="150" rx="0.5" ry="0.5" fill="none" stroke="white" stroke-width="1" />
<ellipse cx="522" cy="220" rx="0.5" ry="0.5" fill="none" stroke="white" stroke-width="1" />
<ellipse cx="390" cy="154" rx="0.5" ry="0.5" fill="none" stroke="white" stroke-width="1" />
<ellipse cx="749" cy="197" rx="0.5" ry="0.5" fill="none" stroke="white" stroke-width="1" />
<ellipse cx="817" cy="260" rx="0.5" ry="0.5" fill="none" stroke="white" stroke-width="1" />
<ellipse cx="272" cy="148" rx="0.5" ry="0.5" fill="none" stroke="white" stroke-width="1" />
<ellipse cx="886" cy="344" rx="0.5" ry="0.5" fill="none" stroke="white" stroke-width="1" />
<ellipse cx="548" cy="368" rx="0.5" ry="0.5" fill="none" stroke="white" stroke-width="1" />
<ellipse cx="441" cy="316" rx="0.5" ry="0.5" fill="none" stroke="white" stroke-width="1" />
<ellipse cx="162" cy="323" rx="0.5" ry="0.5" fill="none" stroke="white" stroke-width="1" />
<ellipse cx="620" cy="359" rx="0.5" ry="0.5" fill="none" stroke="white" stroke-width="1" />
<ellipse cx="41" cy="205" rx="0.5" ry="0.5" fill="none" stroke="white" stroke-width="1" />
<ellipse cx="79" cy="129" rx="0.5" ry="0.5" fill="none" stroke="white" stroke-width="1" />
<ellipse cx="799" cy="65" rx="0.5" ry="0.5" fill="none" stroke="white" stroke-width="1" />
<ellipse cx="887" cy="247" rx="0.5" ry="0.5" fill="none" stroke="white" stroke-width="1" />
<ellipse cx="602" cy="356" rx="0.5" ry="0.5" fill="none" stroke="white" stroke-width="1" />
<ellipse cx="190" cy="148" rx="0.5" ry="0.5" fill="none" stroke="white" stroke-width="1" />
<ellipse cx="844" cy="87" rx="0.5" ry="0.5" fill="none" stroke="white" stroke-width="1" />
<ellipse cx="107" cy="152" rx="0.5" ry="0.5" fill="none" stroke="white" stroke-width="1" />
<ellipse cx="442" cy="25" rx="0.5" ry="0.5" fill="none" stroke="white" stroke-width="1" />
<ellipse cx="37" cy="358" rx="0.5" ry="0.5" fill="none" stroke="white" stroke-width="1" />
<ellipse cx="66" cy="124" rx="0.5" ry="0.5" fill="none" stroke="white" stroke-width="1" />
<ellipse cx="272" cy="132" rx="0.5" ry="0.5" fill="none" stroke="white" stroke-width="1" />
<ellipse cx="548" cy="390" rx="0.5" ry="0.5" fill="none" stroke="white" stroke-width="1" />
<ellipse cx="485" cy="112" rx="0.5" ry="0.5" fill="none" stroke="white" stroke-width="1" />
<ellipse cx="103" cy="35" rx="0.5" ry="0.5" fill="none" stroke="white" stroke-width="1" />
<ellipse cx="201" cy="44" rx="0.5" ry="0.5" fill="none" stroke="white" stroke-width="1" />
<ellipse cx="852" cy="281" rx="0.5" ry="0.5" fill="none" stroke="white" stroke-width="1" />
<ellipse cx="615" cy="71" rx="0.5" ry="0.5" fill="none" stroke="white" stroke-width="1" />
<ellipse cx="433" cy="343" rx="0.5" ry="0.5" fill="none" stroke="white" stroke-width="1" />
<ellipse cx="141" cy="155" rx="0.5" ry="0.5" fill="none" stroke="white" stroke-width="1" />
<ellipse cx="812" cy="55" rx="0.5" ry="0.5" fill="none" stroke="white" stroke-width="1" />
<ellipse cx="200" cy="36" rx="0.5" ry="0.5" fill="none" stroke="white" stroke-width="1" />
<ellipse cx="364" cy="168" rx="0.5" ry="0.5" fill="none" stroke="white" stroke-width="1" />
<ellipse cx="678" cy="145" rx="0.5" ry="0.5" fill="none" stroke="white" stroke-width="1" />
<ellipse cx="352" cy="5" rx="0.5" ry="0.5" fill="none" stroke="white" stroke-width="1" />
<ellipse cx="450.0" cy="590.0" rx="180" ry="180" fill="none" stroke="white" stroke-width="1" />
<ellipse cx="450.0" cy="590.0" rx="200" ry="200" fill="none" stroke="white" stroke-width="1" />
<ellipse cx="450.0" cy="590.0" rx="220" ry="220" fill="none" stroke="white" stroke-width="1" />
<path d="M700.0,589.9999999999999 L800.0,589.9999999999999" fill="none" stroke="white" stroke-width="1" />
<path d="M696.2019382530519,546.5879555832672 L735.5942483735403,539.64202847659" fill="none" stroke="white" stroke-width="1" />
<path d="M684.9231551964771,504.4949641685829 L778.8924172750679,470.292949836016" fill="none" stroke="white" stroke-width="1" />
<path d="M666.5063509461096,464.9999999999999 L701.1473670974872,444.9999999999999" fill="none" stroke="white" stroke-width="1" />
<path d="M641.5111107797445,429.3030975783651 L718.1155550916422,365.02433660971116" fill="none" stroke="white" stroke-width="1" />
<path d="M610.6969024216348,398.4888892202555 L636.4084068090964,367.84711149549634" fill="none" stroke="white" stroke-width="1" />
<path d="M575.0,373.49364905389035 L625.0,286.8911086754465" fill="none" stroke="white" stroke-width="1" />
<path d="M535.505035831417,355.0768448035229 L549.1858415644438,317.48913997208655" fill="none" stroke="white" stroke-width="1" />
<path d="M493.4120444167325,343.79806174694795 L510.77686218342546,245.31728644572718" fill="none" stroke="white" stroke-width="1" />
<path d="M449.99999999999994,340.0 L449.99999999999994,300.0" fill="none" stroke="white" stroke-width="1" />
<path d="M406.58795558326744,343.798061746948 L389.22313781657436,245.31728644572718" fill="none" stroke="white" stroke-width="1" />
<path d="M364.49496416858267,355.07684480352293 L350.8141584355559,317.4891399720866" fill="none" stroke="white" stroke-width="1" />
<path d="M324.9999999999999,373.4936490538904 L274.9999999999999,286.89110867544656" fill="none" stroke="white" stroke-width="1" />
<path d="M289.3030975783651,398.4888892202555 L263.5915931909035,367.8471114954964" fill="none" stroke="white" stroke-width="1" />
<path d="M258.4888892202555,429.30309757836517 L181.88444490835764,365.02433660971127" fill="none" stroke="white" stroke-width="1" />
<path d="M233.49364905389035,465.0 L198.8526329025128,445.0" fill="none" stroke="white" stroke-width="1" />
<path d="M215.0768448035229,504.49496416858284 L121.10758272493206,470.29294983601596" fill="none" stroke="white" stroke-width="1" />
<path d="M203.798061746948,546.5879555832673 L164.40575162645968,539.6420284765902" fill="none" stroke="white" stroke-width="1" />
<path d="M104.0,83.8 L104.0,113.2" fill="none" stroke="white" stroke-width="2" />
<path d="M104.0,109.0 L120.8,109.0" fill="none" stroke="white" stroke-width="2" />
<path d="M130.0,88.0 L131.4,89.4 L132.8,88.0 L131.4,86.6 L130.0,88.0" fill="none" stroke="white" stroke-width="2" />
<path d="M131.4,92.2 L131.4,111.8" fill="none" stroke="white" stroke-width="2" />
<path d="M149.0,92.2 L149.0,111.8" fill="none" stroke="white" stroke-width="2" />
<path d="M149.0,97.8 L153.2,93.6 L156.0,92.2 L160.2,92.2 L163.0,93.6 L164.4,97.8 L164.4,111.8" fill="none" stroke="white" stroke-width="2" />
<path d="M177.0,100.6 L193.8,100.6 L193.8,97.8 L192.4,95.0 L191.0,93.6 L188.2,92.2 L184.0,92.2 L181.2,93.6 L178.4,96.4 L177.0,100.6 L177.0,103.4 L178.4,107.6 L181.2,110.4 L184.0,111.8 L188.2,111.8 L191.0,110.4 L193.8,107.6" fill="none" stroke="white" stroke-width="2" />
<path d="M206.0,83.8 L206.0,113.2" fill="none" stroke="white" stroke-width="2" />
<path d="M206.0,83.8 L215.8,83.8 L220.0,85.2 L222.8,88.0 L224.2,90.8 L225.6,95.0 L225.6,102.0 L224.2,106.2 L222.8,109.0 L220.0,111.8 L215.8,113.2 L206.0,113.2" fill="none" stroke="white" stroke-width="2" />
<path d="M237.0,92.2 L237.0,111.8" fill="none" stroke="white" stroke-width="2" />
<path d="M237.0,102.2 L238.4,98.0 L241.2,95.2 L244.0,93.8 L248.2,93.8" fill="none" stroke="white" stroke-width="2" />
<path d="M259.0,100.6 L275.8,100.6 L275.8,97.8 L274.4,95.0 L273.0,93.6 L270.2,92.2 L266.0,92.2 L263.2,93.6 L260.4,96.4 L259.0,100.6 L259.0,103.4 L260.4,107.6 L263.2,110.4 L266.0,111.8 L270.2,111.8 L273.0,110.4 L275.8,107.6" fill="none" stroke="white" stroke-width="2" />
<path d="M299.0,92.2 L299.0,111.8" fill="none" stroke="white" stroke-width="2" />
<path d="M299.0,96.4 L296.2,93.6 L293.4,92.2 L289.2,92.2 L286.4,93.6 L283.6,96.4 L282.2,100.6 L282.2,103.4 L283.6,107.6 L286.4,110.4 L289.2,111.8 L293.4,111.8 L296.2,110.4 L299.0,107.6" fill="none" stroke="white" stroke-width="2" />
<path d="M317.0,92.2 L317.0,111.8" fill="none" stroke="white" stroke-width="2" />
<path d="M317.0,97.8 L321.2,93.6 L324.0,92.2 L328.2,92.2 L331.0,93.6 L332.4,97.8 L332.4,111.8" fill="none" stroke="white" stroke-width="2" />
<path d="M332.4,97.8 L336.6,93.6 L339.4,92.2 L343.6,92.2 L346.4,93.6 L347.8,97.8 L347.8,111.8" fill="none" stroke="white" stroke-width="2" />
</svg>