<?xml version="1.0" encoding="UTF-8"?>
<svg xmlns="http://www.w3.org/2000/svg" xmlns:xlink="http://www.w3.org/1999/xlink"
     width="900" height="500" viewBox="0 0 900 500">
<defs>
</defs>
<rect x="0" y="0" width="100%" height="100%" fill="black" />
<ellipse cx="616" cy="41" rx="0.5" ry="0.5" fill="none" stroke="white" stroke-width="1" />
<ellipse cx="9" cy="137" rx="0.5" ry="0.5" fill="none" stroke="white" stroke-width="1" />
<ellipse cx="486" cy="295" rx="0.5" ry="0.5" fill="none" stroke="white" stroke-width="1" />
<ellipse cx="60" cy="152" rx="0.5" ry="0.5" fill="none" stroke="white" stroke-width="1" />
<ellipse cx="450" cy="258" rx="0.5" ry="0.5" fill="none" stroke="white" stroke-width="1" />
<ellipse cx="300" cy="94" rx="0.5" ry="0.5" fill="none" stroke="white" stroke-width="1" />
<ellipse cx="156" cy="88" rx="0.5" ry="0.5" fill="none" stroke="white" stroke-width="1" />
<ellipse cx="806" cy="355" rx="0.5" ry="0.5" fill="none" stroke="white" stroke-width="1" />
<ellipse cx="365" cy="178" rx="0.5" ry="0.5" fill="none" stroke="white" stroke-width="1" />
<ellipse cx="79" cy="269" rx="0.5" ry="0.5" fill="none" stroke="white" stroke-width="1" />
<ellipse cx="204" cy="318" rx="0.5" ry="0.5" fill="none" stroke="white" stroke-width="1" />
<ellipse cx="267" cy="238" rx="0.5" ry="0.5" fill="none" stroke="white" stroke-width="1" />
<ellipse cx="23" cy="346" rx="0.5" ry="0.5" fill="none" stroke="white" stroke-width="1" />
<ellipse cx="857" cy="58" rx="0.5" ry="0.5" fill="none" stroke="white" stroke-width="1" />
<ellipse cx="254" cy="300" rx="0.5" ry="0.5" fill="none" stroke="white" stroke-width="1" />
<ellipse cx="635" cy="191" rx="0.5" ry="0.5" fill="none" stroke="white" stroke-width="1" />
<ellipse cx="316" cy="390" rx="0.5" ry="0.5" fill="none" stroke="white" stroke-width="1" />
<ellipse cx="396" cy="118" rx="0.5" ry="0.5" fill="none" stroke="white" stroke-width="1" />
<ellipse cx="696" cy="266" rx="0.5" ry="0.5" fill="none" stroke="white" stroke-width="1" />
<ellipse cx="169" cy="252" rx="0.5" ry="0.5" fill="none" stroke="white" stroke-width="1" />
<ellipse cx="225" cy="341" rx="0.5" ry="0.5" fill="none" stroke="white" stroke-width="1" />
<ellipse cx="359" cy="184" rx="0.5" ry="0.5" fill="none" stroke="white" stroke-width="1" />
<ellipse cx="679" cy="270" rx="0.5" ry="0.5" fill="none" stroke="white" stroke-width="1" />
<ellipse cx="124" cy="111" rx="0.5" ry="0.5" fill="none" stroke="white" stroke-width="1" />
<ellipse cx="3" cy="69" rx="0.5" ry="0.5" fill="none" stroke="white" stroke-width="1" />
<ellipse cx="693" cy="37" rx="0.5" ry="0.5" fill="none" stroke="white" stroke-width="1" />
<ellipse cx="493" cy="385" rx="0.5" ry="0.5" fill="none" stroke="white" stroke-width="1" />
<ellipse cx="859" cy="136" rx="0.5" ry="0.5" fill="none" stroke="white" stroke-width="1" />
<ellipse cx="266" cy="319" rx="0.5" ry="0.5" fill="none" stroke="white" stroke-width="1" />
<ellipse cx="419" cy="27" rx="0.5" ry="0.5" fill="none" stroke="white" stroke-width="1" />
<ellipse cx="710" cy="358" rx="0.5" ry="0.5" fill="none" stroke="white" stroke-width="1" />
<ellipse cx="57" cy="2" rx="0.5" ry="0.5" fill="none" stroke="white" stroke-width="1" />
<ellipse cx="869" cy="67" rx="0.5" ry="0.5" fill="none" stroke="white" stroke-width="1" />
<ellipse cx="584" cy="107" rx="0.5" ry="0.5" fill="none" stroke="white" stroke-width="1" />
<ellipse cx="797" cy="150" rx="0.5" ry="0.5" fill="none" stroke="white" stroke-width="1" />
<ellipse cx="270" cy="336" rx="0.5" ry="0.5" fill="none" stroke="white" stroke-width="1" />
<ellipse cx="163" cy="349" rx="0.5" ry="0.5" fill="none" stroke="white" stroke-width="1" />
<ellipse cx="840" cy="271" rx="0.5" ry="0.5" fill="none" stroke="white" stroke-width="1" />
<ellipse cx="794" cy="399" rx="0.5" ry="0.5" fill="none" stroke="white" stroke-width="1" />
<ellipse cx="403" cy="263" rx="0.5" ry="0.5" fill="none" stroke="white" stroke-width="1" />
<ellipse cx="694" cy="344" rx="0.5" ry="0.5" fill="none" stroke="white" stroke-width="1" />
<ellipse cx="589" cy="99" rx="0.5" ry="0.5" fill="none" stroke="white" stroke-width="1" />
<ellipse cx="163" cy="58" rx="0.5" ry="0.5" fill="none" stroke="white" stroke-width="1" />
<ellipse cx="730" cy="126" rx="0.5" ry="0.5" fill="none" stroke="white" stroke-width="1" />
<ellipse cx="307" cy="57" rx="0.5" ry="0.5" fill="none" stroke="white" stroke-width="1" />
<ellipse cx="252" cy="75" rx="0.5" ry="0.5" fill="none" stroke="white" stroke-width="1" />
<ellipse cx="233" cy="200" rx="0.5" ry="0.5" fill="none" stroke="white" stroke-width="1" />
<ellipse cx="93" cy="384" rx="0.5" ry="0.5" fill="none" stroke="white" stroke-width="1" />
<ellipse cx="77" cy="258" rx="0.5" ry="0.5" fill="none" stroke="white" stroke-width="1" />
<ellipse cx="446" cy="388" rx="0.5" ry="0.5" fill="none" stroke="white" stroke-width="1" />
<ellipse cx="170" cy="292" rx="0.5" ry="0.5" fill="none" stroke="white" stroke-width="1" />
<ellipse cx="405" cy="347" rx="0.5" ry="0.5" fill="none" stroke="white" stroke-width="1" />
<ellipse cx="68" cy="320" rx="0.5" ry="0.5" fill="none" stroke="white" stroke-width="1" />
<ellipse cx="240" cy="315" rx="0.5" ry="0.5" fill="none" stroke="white" stroke-width="1" />
<ellipse cx="764" cy="168" rx="0.5" ry="0.5" fill="none" stroke="white" stroke-width="1" />
<ellipse cx="342" cy="238" rx="0.5" ry="0.5" fill="none" stroke="white" stroke-width="1" />
<ellipse cx="690" cy="382" rx="0.5" ry="0.5" fill="none" stroke="white" stroke-width="1" />
<ellipse cx="743" cy="200" rx="0.5" ry="0.5" fill="none" stroke="white" stroke-width="1" />
<ellipse cx="320" cy="157" rx="0.5" ry="0.5" fill="none" stroke="white" stroke-width="1" />
<ellipse cx="422" cy="146" rx="0.5" ry="0.5" fill="none" stroke="white" stroke-width="1" />
<ellipse cx="235" cy="53" rx="0.5" ry="0.5" fill="none" stroke="white" stroke-width="1" />
<ellipse cx="368" cy="197" rx="0.5" ry="0.5" fill="none" stroke="white" stroke-width="1" />
<ellipse cx="570" cy="61" rx="0.5" ry="0.5" fill="none" stroke="white" stroke-width="1" />
<ellipse cx="390" cy="45" rx="0.5" ry="0.5" fill="none" stroke="white" stroke-width="1" />
<ellipse cx="360" cy="210" rx="0.5" ry="0.5" fill="none" stroke="white" stroke-width="1" />
<ellipse cx="45" cy="296" rx="0.5" ry="0.5" fill="none" stroke="white" stroke-width="1" />
<ellipse cx="651" cy="171" rx="0.5" ry="0.5" fill="none" stroke="white" stroke-width="1" />
<ellipse cx="661" cy="189" rx="0.5" ry="0.5" fill="none" stroke="white" stroke-width="1" />
<ellipse cx="214" cy="175" rx="0.5" ry="0.5" fill="none" stroke="white" stroke-width="1" />
<ellipse cx="160" cy="78" rx="0.5" ry="0.5" fill="none" stroke="white" stroke-width="1" />
<ellipse cx="239" cy="297" rx="0.5" ry="0.5" fill="none" stroke="white" stroke-width="1" />
<ellipse cx="817" cy="323" rx="0.5" ry="0.5" fill="none" stroke="white" stroke-width="1" />
<ellipse cx="114" cy="306" rx="0.5" ry="0.5" fill="none" stroke="white" stroke-width="1" />
<ellipse cx="807" cy="124" rx="0.5" ry="0.5" fill="none" stroke="white" stroke-width="1" />
<ellipse cx="225" cy="227" rx="0.5" ry="0.5" fill="none" stroke="white" stroke-width="1" />
<ellipse cx="218" cy="122" rx="0.5" ry="0.5" fill="none" stroke="white" stroke-width="1" />
<ellipse cx="753" cy="250" rx="0.5" ry="0.5" fill="none" stroke="white" stroke-width="1" />
<ellipse cx="617" cy="338" rx="0.5" ry="0.5" fill="none" stroke="white" stroke-width="1" />
<ellipse cx="176" cy="53" rx="0.5" ry="0.5" fill="none" stroke="white" stroke-width="1" />
<ellipse cx="871" cy="21" rx="0.5" ry="0.5" fill="none" stroke="white" stroke-width="1" />
<ellipse cx="694" cy="246" rx="0.5" ry="0.5" fill="none" stroke="white" stroke-width="1" />
<ellipse cx="278" cy="240" rx="0.5" ry="0.5" fill="none" stroke="white" stroke-width="1" />
<ellipse cx="447" cy="6" rx="0.5" ry="0.5" fill="none" stroke="white" stroke-width="1" />
<ellipse cx="129" cy="120" rx="0.5" ry="0.5" fill="none" stroke="white" stroke-width="1" />
<ellipse cx="310" cy="352" rx="0.5" ry="0.5" fill="none" stroke="white" stroke-width="1" />
<ellipse cx="389" cy="366" rx="0.5" ry="0.5" fill="none" stroke="white" stroke-width="1" />
<ellipse cx="469" cy="102" rx="0.5" ry="0.5" fill="none" stroke="white" stroke-width="1" />
<ellipse cx="107" cy="305" rx="0.5" ry="0.5" fill="none" stroke="white" stroke-width="1" />
<ellipse cx="213" cy="98" rx="0.5" ry="0.5" fill="none" stroke="white" stroke-width="1" />
<ellipse cx="315" cy="251" rx="0.5" ry="0.5" fill="none" stroke="white" stroke-width="1" />
<ellipse cx="219" cy="112" rx="0.5" ry="0.5" fill="none" stroke="white" stroke-width="1" />
<ellipse cx="38" cy="77" rx="0.5" ry="0.5" fill="none" stroke="white" stroke-width="1" />
<ellipse cx="773" cy="380" rx="0.5" ry="0.5" fill="none" stroke="white" stroke-width="1" />
<ellipse cx="436" cy="252" rx="0.5" ry="0.5" fill="none" stroke="white" stroke-width="1" />
<ellipse cx="792" cy="262" rx="0.5" ry="0.5" fill="none" stroke="white" stroke-width="1" />
<ellipse cx="508" cy="285" rx="0.5" ry="0.5" fill="none" stroke="white" stroke-width="1" />
<ellipse cx="90" cy="4" rx="0.5" ry="0.5" fill="none" stroke="white" stroke-width="1" />
<ellipse cx="447" cy="314" rx="0.5" ry="0.5" fill="none" stroke="white" stroke-width="1" />
<ellipse cx="541" cy="288" rx="0.5" ry="0.5" fill="none" stroke="white" stroke-width="1" />
<ellipse cx="794" cy="110" rx="0.5" ry="0.5" fill="none" stroke="white" stroke-width="1" />
<ellipse cx="450.0" cy="590.0" rx="180" ry="180" fill="none" stroke="white" stroke-width="1" />
<ellipse cx="450.0" cy="590.0" rx="200" ry="200" fill="none" stroke="white" stroke-width="1" />
<ellipse cx="450.0" cy="590.0" rx="220" ry="220" fill="none" stroke="white" stroke-width="1" />
<path d="M700.0,589.9999999999999 L800.0,589.9999999999999" fill="none" stroke="white" stroke-width="1" />
<path d="M696.2019382530519,546.5879555832672 L735.5942483735403,539.64202847659" fill="none" stroke="white" stroke-width="1" />
<path d="M684.9231551964771,504.4949641685829 L778.8924172750679,470.292949836016" fill="none" stroke="white" stroke-width="1" />
<path d="M666.5063509461096,464.9999999999999 L701.1473670974872,444.9999999999999" fill="none" stroke="white" stroke-width="1" />
<path d="M641.5111107797445,429.3030975783651 L718.1155550916422,365.02433660971116" fill="none" stroke="white" stroke-width="1" />
<path d="M610.6969024216348,398.4888892202555 L636.4084068090964,367.84711149549634" fill="none" stroke="white" stroke-width="1" />
<path d="M575.0,373.49364905389035 L625.0,286.8911086754465" fill="none" stroke="white" stroke-width="1" />
<path d="M535.505035831417,355.0768448035229 L549.1858415644438,317.48913997208655" fill="none" stroke="white" stroke-width="1" />
<path d="M493.4120444167325,343.79806174694795 L510.77686218342546,245.31728644572718" fill="none" stroke="white" stroke-width="1" />
<path d="M449.99999999999994,340.0 L449.99999999999994,300.0" fill="none" stroke="white" stroke-width="1" />
<path d="M406.58795558326744,343.798061746948 L389.22313781657436,245.31728644572718" fill="none" stroke="white" stroke-width="1" />
<path d="M364.49496416858267,355.07684480352293 L350.8141584355559,317.4891399720866" fill="none" stroke="white" stroke-width="1" />
<path d="M324.9999999999999,373.4936490538904 L274.9999999999999,286.89110867544656" fill="none" stroke="white" stroke-width="1" />
<path d="M289.3030975783651,398.4888892202555 L263.5915931909035,367.8471114954964" fill="none" stroke="white" stroke-width="1" />
<path d="M258.4888892202555,429.30309757836517 L181.88444490835764,365.02433660971127" fill="none" stroke="white" stroke-width="1" />
<path d="M233.49364905389035,465.0 L198.8526329025128,445.0" fill="none" stroke="white" stroke-width="1" />
<path d="M215.0768448035229,504.49496416858284 L121.10758272493206,470.29294983601596" fill="none" stroke="white" stroke-width="1" />
<path d="M203.798061746948,546.5879555832673 L164.40575162645968,539.6420284765902" fill="none" stroke="white" stroke-width="1" />
<path d="M104.0,101.4 L104.0,130.8" fill="none" stroke="white" stroke-width="2" />
<path d="M104.0,130.8 L120.8,130.8" fill="none" stroke="white" stroke-width="2" />
<path d="M130.0,105.4 L131.4,106.8 L132.8,105.4 L131.4,104.0 L130.0,105.4" fill="none" stroke="white" stroke-width="2" />
<path d="M131.4,111.19999999999999 L131.4,130.8" fill="none" stroke="white" stroke-width="2" />
<path d="M149.0,111.19999999999999 L149.0,130.8" fill="none" stroke="white" stroke-width="2" />
<path d="M149.0,116.8 L153.2,112.6 L156.0,111.19999999999999 L160.2,111.19999999999999 L163.0,112.6 L164.4,116.8 L164.4,130.8" fill="none" stroke="white" stroke-width="2" />
<path d="M172.2,119.6 L189.0,119.6 L189.0,116.8 L187.6,114.0 L186.2,112.6 L183.4,111.19999999999999 L179.2,111.19999999999999 L176.4,112.6 L173.6,115.4 L172.2,119.6 L172.2,122.39999999999999 L173.6,126.6 L176.4,129.39999999999998 L179.2,130.8 L183.4,130.8 L186.2,129.39999999999998 L189.0,126.6" fill="none" stroke="white" stroke-width="2" />
<path d="M206.0,101.4 L206.0,130.8" fill="none" stroke="white" stroke-width="2" />
<path d="M206.0,101.4 L215.8,101.4 L220.0,102.8 L222.8,105.6 L224.2,108.4 L225.6,112.6 L225.6,119.6 L224.2,123.8 L222.8,126.6 L220.0,129.39999999999998 L215.8,130.8 L206.0,130.8" fill="none" stroke="white" stroke-width="2" />
<path d="M237.0,111.19999999999999 L237.0,130.8" fill="none" stroke="white" stroke-width="2" />
<path d="M237.0,121.19999999999999 L238.4,117.0 L241.2,114.19999999999999 L244.0,112.8 L248.2,112.8" fill="none" stroke="white" stroke-width="2" />
<path d="M254.2,119.6 L271.0,119.6 L271.0,116.8 L269.6,114.0 L268.2,112.6 L265.4,111.19999999999999 L261.2,111.19999999999999 L258.4,112.6 L255.6,115.4 L254.2,119.6 L254.2,122.39999999999999 L255.6,126.6 L258.4,129.39999999999998 L261.2,130.8 L265.4,130.8 L268.2,129.39999999999998 L271.0,126.6" fill="none" stroke="white" stroke-width="2" />
<path d="M299.0,111.19999999999999 L299.0,130.8" fill="none" stroke="white" stroke-width="2" />
<path d="M299.0,115.4 L296.2,112.6 L293.4,111.19999999999999 L289.2,111.19999999999999 L286.4,112.6 L283.6,115.4 L282.2,119.6 L282.2,122.39999999999999 L283.6,126.6 L286.4,129.39999999999998 L289.2,130.8 L293.4,130.8 L296.2,129.39999999999998 L299.0,126.6" fill="none" stroke="white" stroke-width="2" />
<path d="M317.0,111.19999999999999 L317.0,130.8" fill="none" stroke="white" stroke-width="2" />
<path d="M317.0,116.8 L321.2,112.6 L324.0,111.19999999999999 L328.2,111.19999999999999 L331.0,112.6 L332.4,116.8 L332.4,130.8" fill="none" stroke="white" stroke-width="2" />
<path d="M332.4,116.8 L336.6,112.6 L339.4,111.19999999999999 L343.6,111.19999999999999 L346.4,112.6 L347.8,116.8 L347.8,130.8" fill="none" stroke="white" stroke-width="2" />
</svg>