<?xml version="1.0" encoding="UTF-8"?>
<svg xmlns="http://www.w3.org/2000/svg" xmlns:xlink="http://www.w3.org/1999/xlink"
     width="900mm" height="500mm" viewBox="0 0 900 500">
<defs>
</defs>
<rect x="0" y="0" width="100%" height="100%" fill="black" />
<ellipse cx="612" cy="65" rx="0.5" ry="0.5" fill="none" stroke="white" stroke-width="1" />
<ellipse cx="518" cy="55" rx="0.5" ry="0.5" fill="none" stroke="white" stroke-width="1" />
<ellipse cx="562" cy="182" rx="0.5" ry="0.5" fill="none" stroke="white" stroke-width="1" />
<ellipse cx="647" cy="287" rx="0.5" ry="0.5" fill="none" stroke="white" stroke-width="1" />
<ellipse cx="463" cy="348" rx="0.5" ry="0.5" fill="none" stroke="white" stroke-width="1" />
<ellipse cx="465" cy="276" rx="0.5" ry="0.5" fill="none" stroke="white" stroke-width="1" />
<ellipse cx="818" cy="164" rx="0.5" ry="0.5" fill="none" stroke="white" stroke-width="1" />
<ellipse cx="132" cy="32" rx="0.5" ry="0.5" fill="none" stroke="white" stroke-width="1" />
<ellipse cx="849" cy="381" rx="0.5" ry="0.5" fill="none" stroke="white" stroke-width="1" />
<ellipse cx="219" cy="208" rx="0.5" ry="0.5" fill="none" stroke="white" stroke-width="1" />
<ellipse cx="733" cy="67" rx="0.5" ry="0.5" fill="none" stroke="white" stroke-width="1" />
<ellipse cx="33" cy="377" rx="0.5" ry="0.5" fill="none" stroke="white" stroke-width="1" />
<ellipse cx="127" cy="354" rx="0.5" ry="0.5" fill="none" stroke="white" stroke-width="1" />
<ellipse cx="24" cy="277" rx="0.5" ry="0.5" fill="none" stroke="white" stroke-width="1" />
<ellipse cx="567" cy="92" rx="0.5" ry="0.5" fill="none" stroke="white" stroke-width="1" />
<ellipse cx="413" cy="105" rx="0.5" ry="0.5" fill="none" stroke="white" stroke-width="1" />
<ellipse cx="503" cy="178" rx="0.5" ry="0.5" fill="none" stroke="white" stroke-width="1" />
<ellipse cx="2" cy="139" rx="0.5" ry="0.5" fill="none" stroke="white" stroke-width="1" />
<ellipse cx="767" cy="180" rx="0.5" ry="0.5" fill="none" stroke="white" stroke-width="1" />
<ellipse cx="324" cy="124" rx="0.5" ry="0.5" fill="none" stroke="white" stroke-width="1" />
<ellipse cx="789" cy="250" rx="0.5" ry="0.5" fill="none" stroke="white" stroke-width="1" />
<ellipse cx="411" cy="148" rx="0.5" ry="0.5" fill="none" stroke="white" stroke-width="1" />
<ellipse cx="369" cy="336" rx="0.5" ry="0.5" fill="none" stroke="white" stroke-width="1" />
<ellipse cx="456" cy="320" rx="0.5" ry="0.5" fill="none" stroke="white" stroke-width="1" />
<ellipse cx="759" cy="34" rx="0.5" ry="0.5" fill="none" stroke="white" stroke-width="1" />
<ellipse cx="160" cy="138" rx="0.5" ry="0.5" fill="none" stroke="white" stroke-width="1" />
<ellipse cx="509" cy="91" rx="0.5" ry="0.5" fill="none" stroke="white" stroke-width="1" />
<ellipse cx="157" cy="255" rx="0.5" ry="0.5" fill="none" stroke="white" stroke-width="1" />
<ellipse cx="852" cy="94" rx="0.5" ry="0.5" fill="none" stroke="white" stroke-width="1" />
<ellipse cx="692" cy="230" rx="0.5" ry="0.5" fill="none" stroke="white" stroke-width="1" />
<ellipse cx="722" cy="167" rx="0.5" ry="0.5" fill="none" stroke="white" stroke-width="1" />
<ellipse cx="385" cy="225" rx="0.5" ry="0.5" fill="none" stroke="white" stroke-width="1" />
<ellipse cx="253" cy="253" rx="0.5" ry="0.5" fill="none" stroke="white" stroke-width="1" />
<ellipse cx="354" cy="204" rx="0.5" ry="0.5" fill="none" stroke="white" stroke-width="1" />
<ellipse cx="670" cy="336" rx="0.5" ry="0.5" fill="none" stroke="white" stroke-width="1" />
<ellipse cx="231" cy="391" rx="0.5" ry="0.5" fill="none" stroke="white" stroke-width="1" />
<ellipse cx="253" cy="4" rx="0.5" ry="0.5" fill="none" stroke="white" stroke-width="1" />
<ellipse cx="522" cy="348" rx="0.5" ry="0.5" fill="none" stroke="white" stroke-width="1" />
<ellipse cx="564" cy="382" rx="0.5" ry="0.5" fill="none" stroke="white" stroke-width="1" />
<ellipse cx="519" cy="339" rx="0.5" ry="0.5" fill="none" stroke="white" stroke-width="1" />
<ellipse cx="245" cy="320" rx="0.5" ry="0.5" fill="none" stroke="white" stroke-width="1" />
<ellipse cx="380" cy="274" rx="0.5" ry="0.5" fill="none" stroke="white" stroke-width="1" />
<ellipse cx="135" cy="232" rx="0.5" ry="0.5" fill="none" stroke="white" stroke-width="1" />
<ellipse cx="894" cy="49" rx="0.5" ry="0.5" fill="none" stroke="white" stroke-width="1" />
<ellipse cx="796" cy="266" rx="0.5" ry="0.5" fill="none" stroke="white" stroke-width="1" />
<ellipse cx="698" cy="130" rx="0.5" ry="0.5" fill="none" stroke="white" stroke-width="1" />
<ellipse cx="816" cy="40" rx="0.5" ry="0.5" fill="none" stroke="white" stroke-width="1" />
<ellipse cx="560" cy="51" rx="0.5" ry="0.5" fill="none" stroke="white" stroke-width="1" />
<ellipse cx="855" cy="101" rx="0.5" ry="0.5" fill="none" stroke="white" stroke-width="1" />
<ellipse cx="316" cy="221" rx="0.5" ry="0.5" fill="none" stroke="white" stroke-width="1" />
<ellipse cx="683" cy="358" rx="0.5" ry="0.5" fill="none" stroke="white" stroke-width="1" />
<ellipse cx="690" cy="198" rx="0.5" ry="0.5" fill="none" stroke="white" stroke-width="1" />
<ellipse cx="357" cy="22" rx="0.5" ry="0.5" fill="none" stroke="white" stroke-width="1" />
<ellipse cx="269" cy="168" rx="0.5" ry="0.5" fill="none" stroke="white" stroke-width="1" />
<ellipse cx="643" cy="170" rx="0.5" ry="0.5" fill="none" stroke="white" stroke-width="1" />
<ellipse cx="838" cy="127" rx="0.5" ry="0.5" fill="none" stroke="white" stroke-width="1" />
<ellipse cx="167" cy="120" rx="0.5" ry="0.5" fill="none" stroke="white" stroke-width="1" />
<ellipse cx="782" cy="249" rx="0.5" ry="0.5" fill="none" stroke="white" stroke-width="1" />
<ellipse cx="72" cy="177" rx="0.5" ry="0.5" fill="none" stroke="white" stroke-width="1" />
<ellipse cx="67" cy="26" rx="0.5" ry="0.5" fill="none" stroke="white" stroke-width="1" />
<ellipse cx="692" cy="255" rx="0.5" ry="0.5" fill="none" stroke="white" stroke-width="1" />
<ellipse cx="27" cy="45" rx="0.5" ry="0.5" fill="none" stroke="white" stroke-width="1" />
<ellipse cx="38" cy="234" rx="0.5" ry="0.5" fill="none" stroke="white" stroke-width="1" />
<ellipse cx="266" cy="238" rx="0.5" ry="0.5" fill="none" stroke="white" stroke-width="1" />
<ellipse cx="197" cy="330" rx="0.5" ry="0.5" fill="none" stroke="white" stroke-width="1" />
<ellipse cx="484" cy="234" rx="0.5" ry="0.5" fill="none" stroke="white" stroke-width="1" />
<ellipse cx="568" cy="24" rx="0.5" ry="0.5" fill="none" stroke="white" stroke-width="1" />
<ellipse cx="282" cy="194" rx="0.5" ry="0.5" fill="none" stroke="white" stroke-width="1" />
<ellipse cx="321" cy="358" rx="0.5" ry="0.5" fill="none" stroke="white" stroke-width="1" />
<ellipse cx="341" cy="214" rx="0.5" ry="0.5" fill="none" stroke="white" stroke-width="1" />
<ellipse cx="484" cy="358" rx="0.5" ry="0.5" fill="none" stroke="white" stroke-width="1" />
<ellipse cx="123" cy="231" rx="0.5" ry="0.5" fill="none" stroke="white" stroke-width="1" />
<ellipse cx="717" cy="175" rx="0.5" ry="0.5" fill="none" stroke="white" stroke-width="1" />
<ellipse cx="274" cy="113" rx="0.5" ry="0.5" fill="none" stroke="white" stroke-width="1" />
<ellipse cx="550" cy="117" rx="0.5" ry="0.5" fill="none" stroke="white" stroke-width="1" />
<ellipse cx="349" cy="262" rx="0.5" ry="0.5" fill="none" stroke="white" stroke-width="1" />
<ellipse cx="698" cy="238" rx="0.5" ry="0.5" fill="none" stroke="white" stroke-width="1" />
<ellipse cx="186" cy="26" rx="0.5" ry="0.5" fill="none" stroke="white" stroke-width="1" />
<ellipse cx="499" cy="226" rx="0.5" ry="0.5" fill="none" stroke="white" stroke-width="1" />
<ellipse cx="553" cy="370" rx="0.5" ry="0.5" fill="none" stroke="white" stroke-width="1" />
<ellipse cx="713" cy="11" rx="0.5" ry="0.5" fill="none" stroke="white" stroke-width="1" />
<ellipse cx="321" cy="98" rx="0.5" ry="0.5" fill="none" stroke="white" stroke-width="1" />
<ellipse cx="633" cy="136" rx="0.5" ry="0.5" fill="none" stroke="white" stroke-width="1" />
<ellipse cx="600" cy="119" rx="0.5" ry="0.5" fill="none" stroke="white" stroke-width="1" />
<ellipse cx="420" cy="243" rx="0.5" ry="0.5" fill="none" stroke="white" stroke-width="1" />
<ellipse cx="38" cy="55" rx="0.5" ry="0.5" fill="none" stroke="white" stroke-width="1" />
<ellipse cx="462" cy="103" rx="0.5" ry="0.5" fill="none" stroke="white" stroke-width="1" />
<ellipse cx="127" cy="53" rx="0.5" ry="0.5" fill="none" stroke="white" stroke-width="1" />
<ellipse cx="616" cy="189" rx="0.5" ry="0.5" fill="none" stroke="white" stroke-width="1" />
<ellipse cx="358" cy="25" rx="0.5" ry="0.5" fill="none" stroke="white" stroke-width="1" />
<ellipse cx="482" cy="284" rx="0.5" ry="0.5" fill="none" stroke="white" stroke-width="1" />
<ellipse cx="220" cy="56" rx="0.5" ry="0.5" fill="none" stroke="white" stroke-width="1" />
<ellipse cx="631" cy="264" rx="0.5" ry="0.5" fill="none" stroke="white" stroke-width="1" />
<ellipse cx="75" cy="375" rx="0.5" ry="0.5" fill="none" stroke="white" stroke-width="1" />
<ellipse cx="599" cy="127" rx="0.5" ry="0.5" fill="none" stroke="white" stroke-width="1" />
<ellipse cx="390" cy="96" rx="0.5" ry="0.5" fill="none" stroke="white" stroke-width="1" />
<ellipse cx="424" cy="73" rx="0.5" ry="0.5" fill="none" stroke="white" stroke-width="1" />
<ellipse cx="10" cy="10" rx="0.5" ry="0.5" fill="none" stroke="white" stroke-width="1" />
<ellipse cx="44" cy="24" rx="0.5" ry="0.5" fill="none" stroke="white" stroke-width="1" />
<ellipse cx="269" cy="55" rx="0.5" ry="0.5" fill="none" stroke="white" stroke-width="1" />
<ellipse cx="450.0" cy="590.0" rx="180" ry="180" fill="none" stroke="white" stroke-width="1" />
<ellipse cx="450.0" cy="590.0" rx="200" ry="200" fill="none" stroke="white" stroke-width="1" />
<ellipse cx="450.0" cy="590.0" rx="220" ry="220" fill="none" stroke="white" stroke-width="1" />
<path d="M700.0,589.9999999999999 L800.0,589.9999999999999" fill="none" stroke="white" stroke-width="1" />
<path d="M696.2019382530519,546.5879555832672 L735.5942483735403,539.64202847659" fill="none" stroke="white" stroke-width="1" />
<path d="M684.9231551964771,504.4949641685829 L778.8924172750679,470.292949836016" fill="none" stroke="white" stroke-width="1" />
<path d="M666.5063509461096,464.9999999999999 L701.1473670974872,444.9999999999999" fill="none" stroke="white" stroke-width="1" />
<path d="M641.5111107797445,429.3030975783651 L718.1155550916422,365.02433660971116" fill="none" stroke="white" stroke-width="1" />
<path d="M610.6969024216348,398.4888892202555 L636.4084068090964,367.84711149549634" fill="none" stroke="white" stroke-width="1" />
<path d="M575.0,373.49364905389035 L625.0,286.8911086754465" fill="none" stroke="white" stroke-width="1" />
<path d="M535.505035831417,355.0768448035229 L549.1858415644438,317.48913997208655" fill="none" stroke="white" stroke-width="1" />
<path d="M493.4120444167325,343.79806174694795 L510.77686218342546,245.31728644572718" fill="none" stroke="white" stroke-width="1" />
<path d="M449.99999999999994,340.0 L449.99999999999994,300.0" fill="none" stroke="white" stroke-width="1" />
<path d="M406.58795558326744,343.798061746948 L389.22313781657436,245.31728644572718" fill="none" stroke="white" stroke-width="1" />
<path d="M364.49496416858267,355.07684480352293 L350.8141584355559,317.4891399720866" fill="none" stroke="white" stroke-width="1" />
<path d="M324.9999999999999,373.4936490538904 L274.9999999999999,286.89110867544656" fill="none" stroke="white" stroke-width="1" />
<path d="M289.3030975783651,398.4888892202555 L263.5915931909035,367.8471114954964" fill="none" stroke="white" stroke-width="1" />
<path d="M258.4888892202555,429.30309757836517 L181.88444490835764,365.02433660971127" fill="none" stroke="white" stroke-width="1" />
<path d="M233.49364905389035,465.0 L198.8526329025128,445.0" fill="none" stroke="white" stroke-width="1" />
<path d="M215.0768448035229,504.49496416858284 L121.10758272493206,470.29294983601596" fill="none" stroke="white" stroke-width="1" />
<path d="M203.798061746948,546.5879555832673 L164.40575162645968,539.6420284765902" fill="none" stroke="white" stroke-width="1" />
<path d="M104.0,101.4 L104.0,130.8" fill="none" stroke="white" stroke-width="2" />
<path d="M104.0,130.8 L120.8,130.8" fill="none" stroke="white" stroke-width="2" />
<path d="M130.0,105.4 L131.4,106.8 L132.8,105.4 L131.4,104.0 L130.0,105.4" fill="none" stroke="white" stroke-width="2" />
<path d="M131.4,111.19999999999999 L131.4,130.8" fill="none" stroke="white" stroke-width="2" />
<path d="M149.0,111.19999999999999 L149.0,130.8" fill="none" stroke="white" stroke-width="2" />
<path d="M149.0,116.8 L153.2,112.6 L156.0,111.19999999999999 L160.2,111.19999999999999 L163.0,112.6 L164.4,116.8 L164.4,130.8" fill="none" stroke="white" stroke-width="2" />
<path d="M172.2,119.6 L189.0,119.6 L189.0,116.8 L187.6,114.0 L186.2,112.6 L183.4,111.19999999999999 L179.2,111.19999999999999 L176.4,112.6 L173.6,115.4 L172.2,119.6 L172.2,122.39999999999999 L173.6,126.6 L176.4,129.39999999999998 L179.2,130.8 L183.4,130.8 L186.2,129.39999999999998 L189.0,126.6" fill="none" stroke="white" stroke-width="2" />
<path d="M206.0,101.4 L206.0,130.8" fill="none" stroke="white" stroke-width="2" />
<path d="M206.0,101.4 L215.8,101.4 L220.0,102.8 L222.8,105.6 L224.2,108.4 L225.6,112.6 L225.6,119.6 L224.2,123.8 L222.8,126.6 L220.0,129.39999999999998 L215.8,130.8 L206.0,130.8" fill="none" stroke="white" stroke-width="2" />
<path d="M237.0,111.19999999999999 L237.0,130.8" fill="none" stroke="white" stroke-width="2" />
<path d="M237.0,121.19999999999999 L238.4,117.0 L241.2,114.19999999999999 L244.0,112.8 L248.2,112.8" fill="none" stroke="white" stroke-width="2" />
<path d="M254.2,119.6 L271.0,119.6 L271.0,116.8 L269.6,114.0 L268.2,112.6 L265.4,111.19999999999999 L261.2,111.19999999999999 L258.4,112.6 L255.6,115.4 L254.2,119.6 L254.2,122.39999999999999 L255.6,126.6 L258.4,129.39999999999998 L261.2,130.8 L265.4,130.8 L268.2,129.39999999999998 L271.0,126.6" fill="none" stroke="white" stroke-width="2" />
<path d="M299.0,111.19999999999999 L299.0,130.8" fill="none" stroke="white" stroke-width="2" />
<path d="M299.0,115.4 L296.2,112.6 L293.4,111.19999999999999 L289.2,111.19999999999999 L286.4,112.6 L283.6,115.4 L282.2,119.6 L282.2,122.39999999999999 L283.6,126.6 L286.4,129.39999999999998 L289.2,130.8 L293.4,130.8 L296.2,129.39999999999998 L299.0,126.6" fill="none" stroke="white" stroke-width="2" />
<path d="M317.0,111.19999999999999 L317.0,130.8" fill="none" stroke="white" stroke-width="2" />
<path d="M317.0,116.8 L321.2,112.6 L324.0,111.19999999999999 L328.2,111.19999999999999 L331.0,112.6 L332.4,116.8 L332.4,130.8" fill="none" stroke="white" stroke-width="2" />
<path d="M332.4,116.8 L336.6,112.6 L339.4,111.19999999999999 L343.6,111.19999999999999 L346.4,112.6 L347.8,116.8 L347.8,130.8" fill="none" stroke="white" stroke-width="2" />
</svg>