<?xml version="1.0" encoding="UTF-8"?>
<svg xmlns="http://www.w3.org/2000/svg" xmlns:xlink="http://www.w3.org/1999/xlink"
     width="900" height="500" viewBox="0 0 900 500">
<defs>
</defs>
<rect x="0" y="0" width="100%" height="100%" fill="black" />
<ellipse cx="489" cy="225" rx="0.5" ry="0.5" fill="none" stroke="white" stroke-width="1" />
<ellipse cx="10" cy="231" rx="0.5" ry="0.5" fill="none" stroke="white" stroke-width="1" />
<ellipse cx="281" cy="208" rx="0.5" ry="0.5" fill="none" stroke="white" stroke-width="1" />
<ellipse cx="755" cy="224" rx="0.5" ry="0.5" fill="none" stroke="white" stroke-width="1" />
<ellipse cx="834" cy="358" rx="0.5" ry="0.5" fill="none" stroke="white" stroke-width="1" />
<ellipse cx="490" cy="54" rx="0.5" ry="0.5" fill="none" stroke="white" stroke-width="1" />
<ellipse cx="519" cy="177" rx="0.5" ry="0.5" fill="none" stroke="white" stroke-width="1" />
<ellipse cx="275" cy="289" rx="0.5" ry="0.5" fill="none" stroke="white" stroke-width="1" />
<ellipse cx="131" cy="254" rx="0.5" ry="0.5" fill="none" stroke="white" stroke-width="1" />
<ellipse cx="416" cy="316" rx="0.5" ry="0.5" fill="none" stroke="white" stroke-width="1" />
<ellipse cx="146" cy="30" rx="0.5" ry="0.5" fill="none" stroke="white" stroke-width="1" />
<ellipse cx="426" cy="190" rx="0.5" ry="0.5" fill="none" stroke="white" stroke-width="1" />
<ellipse cx="253" cy="139" rx="0.5" ry="0.5" fill="none" stroke="white" stroke-width="1" />
<ellipse cx="268" cy="130" rx="0.5" ry="0.5" fill="none" stroke="white" stroke-width="1" />
<ellipse cx="523" cy="241" rx="0.5" ry="0.5" fill="none" stroke="white" stroke-width="1" />
<ellipse cx="758" cy="28" rx="0.5" ry="0.5" fill="none" stroke="white" stroke-width="1" />
<ellipse cx="136" cy="269" rx="0.5" ry="0.5" fill="none" stroke="white" stroke-width="1" />
<ellipse cx="494" cy="136" rx="0.5" ry="0.5" fill="none" stroke="white" stroke-width="1" />
<ellipse cx="289" cy="267" rx="0.5" ry="0.5" fill="none" stroke="white" stroke-width="1" />
<ellipse cx="467" cy="372" rx="0.5" ry="0.5" fill="none" stroke="white" stroke-width="1" />
<ellipse cx="288" cy="10" rx="0.5" ry="0.5" fill="none" stroke="white" stroke-width="1" />
<ellipse cx="754" cy="116" rx="0.5" ry="0.5" fill="none" stroke="white" stroke-width="1" />
<ellipse cx="26" cy="271" rx="0.5" ry="0.5" fill="none" stroke="white" stroke-width="1" />
<ellipse cx="279" cy="100" rx="0.5" ry="0.5" fill="none" stroke="white" stroke-width="1" />
<ellipse cx="140" cy="135" rx="0.5" ry="0.5" fill="none" stroke="white" stroke-width="1" />
<ellipse cx="783" cy="92" rx="0.5" ry="0.5" fill="none" stroke="white" stroke-width="1" />
<ellipse cx="147" cy="342" rx="0.5" ry="0.5" fill="none" stroke="white" stroke-width="1" />
<ellipse cx="714" cy="14" rx="0.5" ry="0.5" fill="none" stroke="white" stroke-width="1" />
<ellipse cx="668" cy="92" rx="0.5" ry="0.5" fill="none" stroke="white" stroke-width="1" />
<ellipse cx="105" cy="311" rx="0.5" ry="0.5" fill="none" stroke="white" stroke-width="1" />
<ellipse cx="778" cy="319" rx="0.5" ry="0.5" fill="none" stroke="white" stroke-width="1" />
<ellipse cx="49" cy="356" rx="0.5" ry="0.5" fill="none" stroke="white" stroke-width="1" />
<ellipse cx="776" cy="160" rx="0.5" ry="0.5" fill="none" stroke="white" stroke-width="1" />
<ellipse cx="297" cy="306" rx="0.5" ry="0.5" fill="none" stroke="white" stroke-width="1" />
<ellipse cx="463" cy="28" rx="0.5" ry="0.5" fill="none" stroke="white" stroke-width="1" />
<ellipse cx="237" cy="179" rx="0.5" ry="0.5" fill="none" stroke="white" stroke-width="1" />
<ellipse cx="837" cy="251" rx="0.5" ry="0.5" fill="none" stroke="white" stroke-width="1" />
<ellipse cx="562" cy="302" rx="0.5" ry="0.5" fill="none" stroke="white" stroke-width="1" />
<ellipse cx="315" cy="216" rx="0.5" ry="0.5" fill="none" stroke="white" stroke-width="1" />
<ellipse cx="8" cy="9" rx="0.5" ry="0.5" fill="none" stroke="white" stroke-width="1" />
<ellipse cx="545" cy="152" rx="0.5" ry="0.5" fill="none" stroke="white" stroke-width="1" />
<ellipse cx="667" cy="262" rx="0.5" ry="0.5" fill="none" stroke="white" stroke-width="1" />
<ellipse cx="222" cy="91" rx="0.5" ry="0.5" fill="none" stroke="white" stroke-width="1" />
<ellipse cx="305" cy="138" rx="0.5" ry="0.5" fill="none" stroke="white" stroke-width="1" />
<ellipse cx="283" cy="221" rx="0.5" ry="0.5" fill="none" stroke="white" stroke-width="1" />
<ellipse cx="591" cy="1" rx="0.5" ry="0.5" fill="none" stroke="white" stroke-width="1" />
<ellipse cx="114" cy="351" rx="0.5" ry="0.5" fill="none" stroke="white" stroke-width="1" />
<ellipse cx="859" cy="94" rx="0.5" ry="0.5" fill="none" stroke="white" stroke-width="1" />
<ellipse cx="93" cy="24" rx="0.5" ry="0.5" fill="none" stroke="white" stroke-width="1" />
<ellipse cx="204" cy="259" rx="0.5" ry="0.5" fill="none" stroke="white" stroke-width="1" />
<ellipse cx="78" cy="254" rx="0.5" ry="0.5" fill="none" stroke="white" stroke-width="1" />
<ellipse cx="778" cy="172" rx="0.5" ry="0.5" fill="none" stroke="white" stroke-width="1" />
<ellipse cx="219" cy="215" rx="0.5" ry="0.5" fill="none" stroke="white" stroke-width="1" />
<ellipse cx="727" cy="9" rx="0.5" ry="0.5" fill="none" stroke="white" stroke-width="1" />
<ellipse cx="658" cy="34" rx="0.5" ry="0.5" fill="none" stroke="white" stroke-width="1" />
<ellipse cx="121" cy="71" rx="0.5" ry="0.5" fill="none" stroke="white" stroke-width="1" />
<ellipse cx="203" cy="155" rx="0.5" ry="0.5" fill="none" stroke="white" stroke-width="1" />
<ellipse cx="90" cy="155" rx="0.5" ry="0.5" fill="none" stroke="white" stroke-width="1" />
<ellipse cx="597" cy="269" rx="0.5" ry="0.5" fill="none" stroke="white" stroke-width="1" />
<ellipse cx="528" cy="368" rx="0.5" ry="0.5" fill="none" stroke="white" stroke-width="1" />
<ellipse cx="747" cy="175" rx="0.5" ry="0.5" fill="none" stroke="white" stroke-width="1" />
<ellipse cx="712" cy="279" rx="0.5" ry="0.5" fill="none" stroke="white" stroke-width="1" />
<ellipse cx="248" cy="326" rx="0.5" ry="0.5" fill="none" stroke="white" stroke-width="1" />
<ellipse cx="142" cy="337" rx="0.5" ry="0.5" fill="none" stroke="white" stroke-width="1" />
<ellipse cx="893" cy="296" rx="0.5" ry="0.5" fill="none" stroke="white" stroke-width="1" />
<ellipse cx="294" cy="1" rx="0.5" ry="0.5" fill="none" stroke="white" stroke-width="1" />
<ellipse cx="772" cy="365" rx="0.5" ry="0.5" fill="none" stroke="white" stroke-width="1" />
<ellipse cx="180" cy="286" rx="0.5" ry="0.5" fill="none" stroke="white" stroke-width="1" />
<ellipse cx="20" cy="114" rx="0.5" ry="0.5" fill="none" stroke="white" stroke-width="1" />
<ellipse cx="416" cy="68" rx="0.5" ry="0.5" fill="none" stroke="white" stroke-width="1" />
<ellipse cx="616" cy="389" rx="0.5" ry="0.5" fill="none" stroke="white" stroke-width="1" />
<ellipse cx="362" cy="110" rx="0.5" ry="0.5" fill="none" stroke="white" stroke-width="1" />
<ellipse cx="702" cy="307" rx="0.5" ry="0.5" fill="none" stroke="white" stroke-width="1" />
<ellipse cx="594" cy="265" rx="0.5" ry="0.5" fill="none" stroke="white" stroke-width="1" />
<ellipse cx="423" cy="329" rx="0.5" ry="0.5" fill="none" stroke="white" stroke-width="1" />
<ellipse cx="487" cy="221" rx="0.5" ry="0.5" fill="none" stroke="white" stroke-width="1" />
<ellipse cx="373" cy="47" rx="0.5" ry="0.5" fill="none" stroke="white" stroke-width="1" />
<ellipse cx="687" cy="179" rx="0.5" ry="0.5" fill="none" stroke="white" stroke-width="1" />
<ellipse cx="421" cy="321" rx="0.5" ry="0.5" fill="none" stroke="white" stroke-width="1" />
<ellipse cx="600" cy="156" rx="0.5" ry="0.5" fill="none" stroke="white" stroke-width="1" />
<ellipse cx="701" cy="15" rx="0.5" ry="0.5" fill="none" stroke="white" stroke-width="1" />
<ellipse cx="461" cy="336" rx="0.5" ry="0.5" fill="none" stroke="white" stroke-width="1" />
<ellipse cx="678" cy="137" rx="0.5" ry="0.5" fill="none" stroke="white" stroke-width="1" />
<ellipse cx="802" cy="34" rx="0.5" ry="0.5" fill="none" stroke="white" stroke-width="1" />
<ellipse cx="0" cy="336" rx="0.5" ry="0.5" fill="none" stroke="white" stroke-width="1" />
<ellipse cx="79" cy="43" rx="0.5" ry="0.5" fill="none" stroke="white" stroke-width="1" />
<ellipse cx="787" cy="346" rx="0.5" ry="0.5" fill="none" stroke="white" stroke-width="1" />
<ellipse cx="305" cy="249" rx="0.5" ry="0.5" fill="none" stroke="white" stroke-width="1" />
<ellipse cx="602" cy="112" rx="0.5" ry="0.5" fill="none" stroke="white" stroke-width="1" />
<ellipse cx="31" cy="210" rx="0.5" ry="0.5" fill="none" stroke="white" stroke-width="1" />
<ellipse cx="816" cy="241" rx="0.5" ry="0.5" fill="none" stroke="white" stroke-width="1" />
<ellipse cx="834" cy="260" rx="0.5" ry="0.5" fill="none" stroke="white" stroke-width="1" />
<ellipse cx="699" cy="254" rx="0.5" ry="0.5" fill="none" stroke="white" stroke-width="1" />
<ellipse cx="340" cy="302" rx="0.5" ry="0.5" fill="none" stroke="white" stroke-width="1" />
<ellipse cx="30" cy="150" rx="0.5" ry="0.5" fill="none" stroke="white" stroke-width="1" />
<ellipse cx="154" cy="268" rx="0.5" ry="0.5" fill="none" stroke="white" stroke-width="1" />
<ellipse cx="72" cy="12" rx="0.5" ry="0.5" fill="none" stroke="white" stroke-width="1" />
<ellipse cx="245" cy="299" rx="0.5" ry="0.5" fill="none" stroke="white" stroke-width="1" />
<ellipse cx="67" cy="74" rx="0.5" ry="0.5" fill="none" stroke="white" stroke-width="1" />
<ellipse cx="407" cy="229" rx="0.5" ry="0.5" fill="none" stroke="white" stroke-width="1" />
<ellipse cx="450.0" cy="590.0" rx="180" ry="180" fill="none" stroke="white" stroke-width="1" />
<ellipse cx="450.0" cy="590.0" rx="200" ry="200" fill="none" stroke="white" stroke-width="1" />
<ellipse cx="450.0" cy="590.0" rx="220" ry="220" fill="none" stroke="white" stroke-width="1" />
<path d="M700.0,589.9999999999999 L800.0,589.9999999999999" fill="none" stroke="white" stroke-width="1" />
<path d="M696.2019382530519,546.5879555832672 L735.5942483735403,539.64202847659" fill="none" stroke="white" stroke-width="1" />
<path d="M684.9231551964771,504.4949641685829 L778.8924172750679,470.292949836016" fill="none" stroke="white" stroke-width="1" />
<path d="M666.5063509461096,464.9999999999999 L701.1473670974872,444.9999999999999" fill="none" stroke="white" stroke-width="1" />
<path d="M641.5111107797445,429.3030975783651 L718.1155550916422,365.02433660971116" fill="none" stroke="white" stroke-width="1" />
<path d="M610.6969024216348,398.4888892202555 L636.4084068090964,367.84711149549634" fill="none" stroke="white" stroke-width="1" />
<path d="M575.0,373.49364905389035 L625.0,286.8911086754465" fill="none" stroke="white" stroke-width="1" />
<path d="M535.505035831417,355.0768448035229 L549.1858415644438,317.48913997208655" fill="none" stroke="white" stroke-width="1" />
<path d="M493.4120444167325,343.79806174694795 L510.77686218342546,245.31728644572718" fill="none" stroke="white" stroke-width="1" />
<path d="M449.99999999999994,340.0 L449.99999999999994,300.0" fill="none" stroke="white" stroke-width="1" />
<path d="M406.58795558326744,343.798061746948 L389.22313781657436,245.31728644572718" fill="none" stroke="white" stroke-width="1" />
<path d="M364.49496416858267,355.07684480352293 L350.8141584355559,317.4891399720866" fill="none" stroke="white" stroke-width="1" />
<path d="M324.9999999999999,373.4936490538904 L274.9999999999999,286.89110867544656" fill="none" stroke="white" stroke-width="1" />
<path d="M289.3030975783651,398.4888892202555 L263.5915931909035,367.8471114954964" fill="none" stroke="white" stroke-width="1" />
<path d="M258.4888892202555,429.30309757836517 L181.88444490835764,365.02433660971127" fill="none" stroke="white" stroke-width="1" />
<path d="M233.49364905389035,465.0 L198.8526329025128,445.0" fill="none" stroke="white" stroke-width="1" />
<path d="M215.0768448035229,504.49496416858284 L121.10758272493206,470.29294983601596" fill="none" stroke="white" stroke-width="1" />
<path d="M203.798061746948,546.5879555832673 L164.40575162645968,539.6420284765902" fill="none" stroke="white" stroke-width="1" />
<path d="M23.0,18.0 L23.0,39.0" fill="none" stroke="white" stroke-width="1" />
<path d="M23.0,18.0 L32.0,18.0 L35.0,19.0 L36.0,20.0 L37.0,22.0 L37.0,24.0 L36.0,26.0 L35.0,27.0 L32.0,28.0" fill="none" stroke="white" stroke-width="1" />
<path d="M23.0,28.0 L32.0,28.0 L35.0,29.0 L36.0,30.0 L37.0,32.0 L37.0,35.0 L36.0,37.0 L35.0,38.0 L32.0,39.0 L23.0,39.0" fill="none" stroke="white" stroke-width="1" />
</svg>