<?xml version="1.0" encoding="UTF-8"?>
<svg xmlns="http://www.w3.org/2000/svg" xmlns:xlink="http://www.w3.org/1999/xlink"
     width="900" height="500" viewBox="0 0 900 500">
<defs>
</defs>
<rect x="0" y="0" width="100%" height="100%" fill="black" />
<ellipse cx="139" cy="132" rx="0.5" ry="0.5" fill="none" stroke="white" stroke-width="1" />
<ellipse cx="720" cy="390" rx="0.5" ry="0.5" fill="none" stroke="white" stroke-width="1" />
<ellipse cx="863" cy="214" rx="0.5" ry="0.5" fill="none" stroke="white" stroke-width="1" />
<ellipse cx="138" cy="312" rx="0.5" ry="0.5" fill="none" stroke="white" stroke-width="1" />
<ellipse cx="805" cy="338" rx="0.5" ry="0.5" fill="none" stroke="white" stroke-width="1" />
<ellipse cx="291" cy="205" rx="0.5" ry="0.5" fill="none" stroke="white" stroke-width="1" />
<ellipse cx="798" cy="212" rx="0.5" ry="0.5" fill="none" stroke="white" stroke-width="1" />
<ellipse cx="569" cy="380" rx="0.5" ry="0.5" fill="none" stroke="white" stroke-width="1" />
<ellipse cx="70" cy="229" rx="0.5" ry="0.5" fill="none" stroke="white" stroke-width="1" />
<ellipse cx="540" cy="24" rx="0.5" ry="0.5" fill="none" stroke="white" stroke-width="1" />
<ellipse cx="561" cy="179" rx="0.5" ry="0.5" fill="none" stroke="white" stroke-width="1" />
<ellipse cx="237" cy="300" rx="0.5" ry="0.5" fill="none" stroke="white" stroke-width="1" />
<ellipse cx="390" cy="239" rx="0.5" ry="0.5" fill="none" stroke="white" stroke-width="1" />
<ellipse cx="304" cy="110" rx="0.5" ry="0.5" fill="none" stroke="white" stroke-width="1" />
<ellipse cx="136" cy="8" rx="0.5" ry="0.5" fill="none" stroke="white" stroke-width="1" />
<ellipse cx="197" cy="13" rx="0.5" ry="0.5" fill="none" stroke="white" stroke-width="1" />
<ellipse cx="529" cy="330" rx="0.5" ry="0.5" fill="none" stroke="white" stroke-width="1" />
<ellipse cx="603" cy="192" rx="0.5" ry="0.5" fill="none" stroke="white" stroke-width="1" />
<ellipse cx="507" cy="159" rx="0.5" ry="0.5" fill="none" stroke="white" stroke-width="1" />
<ellipse cx="148" cy="383" rx="0.5" ry="0.5" fill="none" stroke="white" stroke-width="1" />
<ellipse cx="633" cy="299" rx="0.5" ry="0.5" fill="none" stroke="white" stroke-width="1" />
<ellipse cx="893" cy="239" rx="0.5" ry="0.5" fill="none" stroke="white" stroke-width="1" />
<ellipse cx="91" cy="278" rx="0.5" ry="0.5" fill="none" stroke="white" stroke-width="1" />
<ellipse cx="158" cy="297" rx="0.5" ry="0.5" fill="none" stroke="white" stroke-width="1" />
<ellipse cx="809" cy="22" rx="0.5" ry="0.5" fill="none" stroke="white" stroke-width="1" />
<ellipse cx="315" cy="288" rx="0.5" ry="0.5" fill="none" stroke="white" stroke-width="1" />
<ellipse cx="183" cy="371" rx="0.5" ry="0.5" fill="none" stroke="white" stroke-width="1" />
<ellipse cx="724" cy="101" rx="0.5" ry="0.5" fill="none" stroke="white" stroke-width="1" />
<ellipse cx="257" cy="388" rx="0.5" ry="0.5" fill="none" stroke="white" stroke-width="1" />
<ellipse cx="311" cy="121" rx="0.5" ry="0.5" fill="none" stroke="white" stroke-width="1" />
<ellipse cx="254" cy="149" rx="0.5" ry="0.5" fill="none" stroke="white" stroke-width="1" />
<ellipse cx="202" cy="66" rx="0.5" ry="0.5" fill="none" stroke="white" stroke-width="1" />
<ellipse cx="375" cy="332" rx="0.5" ry="0.5" fill="none" stroke="white" stroke-width="1" />
<ellipse cx="190" cy="291" rx="0.5" ry="0.5" fill="none" stroke="white" stroke-width="1" />
<ellipse cx="401" cy="220" rx="0.5" ry="0.5" fill="none" stroke="white" stroke-width="1" />
<ellipse cx="887" cy="187" rx="0.5" ry="0.5" fill="none" stroke="white" stroke-width="1" />
<ellipse cx="706" cy="161" rx="0.5" ry="0.5" fill="none" stroke="white" stroke-width="1" />
<ellipse cx="377" cy="25" rx="0.5" ry="0.5" fill="none" stroke="white" stroke-width="1" />
<ellipse cx="205" cy="47" rx="0.5" ry="0.5" fill="none" stroke="white" stroke-width="1" />
<ellipse cx="352" cy="232" rx="0.5" ry="0.5" fill="none" stroke="white" stroke-width="1" />
<ellipse cx="483" cy="351" rx="0.5" ry="0.5" fill="none" stroke="white" stroke-width="1" />
<ellipse cx="539" cy="144" rx="0.5" ry="0.5" fill="none" stroke="white" stroke-width="1" />
<ellipse cx="709" cy="15" rx="0.5" ry="0.5" fill="none" stroke="white" stroke-width="1" />
<ellipse cx="426" cy="352" rx="0.5" ry="0.5" fill="none" stroke="white" stroke-width="1" />
<ellipse cx="466" cy="255" rx="0.5" ry="0.5" fill="none" stroke="white" stroke-width="1" />
<ellipse cx="761" cy="76" rx="0.5" ry="0.5" fill="none" stroke="white" stroke-width="1" />
<ellipse cx="497" cy="132" rx="0.5" ry="0.5" fill="none" stroke="white" stroke-width="1" />
<ellipse cx="15" cy="72" rx="0.5" ry="0.5" fill="none" stroke="white" stroke-width="1" />
<ellipse cx="245" cy="77" rx="0.5" ry="0.5" fill="none" stroke="white" stroke-width="1" />
<ellipse cx="138" cy="151" rx="0.5" ry="0.5" fill="none" stroke="white" stroke-width="1" />
<ellipse cx="535" cy="257" rx="0.5" ry="0.5" fill="none" stroke="white" stroke-width="1" />
<ellipse cx="505" cy="145" rx="0.5" ry="0.5" fill="none" stroke="white" stroke-width="1" />
<ellipse cx="814" cy="5" rx="0.5" ry="0.5" fill="none" stroke="white" stroke-width="1" />
<ellipse cx="757" cy="158" rx="0.5" ry="0.5" fill="none" stroke="white" stroke-width="1" />
<ellipse cx="637" cy="320" rx="0.5" ry="0.5" fill="none" stroke="white" stroke-width="1" />
<ellipse cx="227" cy="288" rx="0.5" ry="0.5" fill="none" stroke="white" stroke-width="1" />
<ellipse cx="654" cy="171" rx="0.5" ry="0.5" fill="none" stroke="white" stroke-width="1" />
<ellipse cx="645" cy="198" rx="0.5" ry="0.5" fill="none" stroke="white" stroke-width="1" />
<ellipse cx="540" cy="286" rx="0.5" ry="0.5" fill="none" stroke="white" stroke-width="1" />
<ellipse cx="453" cy="138" rx="0.5" ry="0.5" fill="none" stroke="white" stroke-width="1" />
<ellipse cx="128" cy="388" rx="0.5" ry="0.5" fill="none" stroke="white" stroke-width="1" />
<ellipse cx="19" cy="273" rx="0.5" ry="0.5" fill="none" stroke="white" stroke-width="1" />
<ellipse cx="890" cy="325" rx="0.5" ry="0.5" fill="none" stroke="white" stroke-width="1" />
<ellipse cx="899" cy="353" rx="0.5" ry="0.5" fill="none" stroke="white" stroke-width="1" />
<ellipse cx="193" cy="320" rx="0.5" ry="0.5" fill="none" stroke="white" stroke-width="1" />
<ellipse cx="853" cy="59" rx="0.5" ry="0.5" fill="none" stroke="white" stroke-width="1" />
<ellipse cx="199" cy="19" rx="0.5" ry="0.5" fill="none" stroke="white" stroke-width="1" />
<ellipse cx="660" cy="293" rx="0.5" ry="0.5" fill="none" stroke="white" stroke-width="1" />
<ellipse cx="512" cy="282" rx="0.5" ry="0.5" fill="none" stroke="white" stroke-width="1" />
<ellipse cx="58" cy="22" rx="0.5" ry="0.5" fill="none" stroke="white" stroke-width="1" />
<ellipse cx="553" cy="214" rx="0.5" ry="0.5" fill="none" stroke="white" stroke-width="1" />
<ellipse cx="163" cy="227" rx="0.5" ry="0.5" fill="none" stroke="white" stroke-width="1" />
<ellipse cx="807" cy="163" rx="0.5" ry="0.5" fill="none" stroke="white" stroke-width="1" />
<ellipse cx="251" cy="388" rx="0.5" ry="0.5" fill="none" stroke="white" stroke-width="1" />
<ellipse cx="598" cy="131" rx="0.5" ry="0.5" fill="none" stroke="white" stroke-width="1" />
<ellipse cx="825" cy="118" rx="0.5" ry="0.5" fill="none" stroke="white" stroke-width="1" />
<ellipse cx="529" cy="192" rx="0.5" ry="0.5" fill="none" stroke="white" stroke-width="1" />
<ellipse cx="619" cy="386" rx="0.5" ry="0.5" fill="none" stroke="white" stroke-width="1" />
<ellipse cx="667" cy="21" rx="0.5" ry="0.5" fill="none" stroke="white" stroke-width="1" />
<ellipse cx="840" cy="199" rx="0.5" ry="0.5" fill="none" stroke="white" stroke-width="1" />
<ellipse cx="467" cy="186" rx="0.5" ry="0.5" fill="none" stroke="white" stroke-width="1" />
<ellipse cx="462" cy="313" rx="0.5" ry="0.5" fill="none" stroke="white" stroke-width="1" />
<ellipse cx="636" cy="344" rx="0.5" ry="0.5" fill="none" stroke="white" stroke-width="1" />
<ellipse cx="522" cy="97" rx="0.5" ry="0.5" fill="none" stroke="white" stroke-width="1" />
<ellipse cx="655" cy="372" rx="0.5" ry="0.5" fill="none" stroke="white" stroke-width="1" />
<ellipse cx="466" cy="61" rx="0.5" ry="0.5" fill="none" stroke="white" stroke-width="1" />
<ellipse cx="784" cy="346" rx="0.5" ry="0.5" fill="none" stroke="white" stroke-width="1" />
<ellipse cx="148" cy="309" rx="0.5" ry="0.5" fill="none" stroke="white" stroke-width="1" />
<ellipse cx="812" cy="395" rx="0.5" ry="0.5" fill="none" stroke="white" stroke-width="1" />
<ellipse cx="664" cy="272" rx="0.5" ry="0.5" fill="none" stroke="white" stroke-width="1" />
<ellipse cx="42" cy="126" rx="0.5" ry="0.5" fill="none" stroke="white" stroke-width="1" />
<ellipse cx="803" cy="136" rx="0.5" ry="0.5" fill="none" stroke="white" stroke-width="1" />
<ellipse cx="775" cy="282" rx="0.5" ry="0.5" fill="none" stroke="white" stroke-width="1" />
<ellipse cx="875" cy="75" rx="0.5" ry="0.5" fill="none" stroke="white" stroke-width="1" />
<ellipse cx="49" cy="113" rx="0.5" ry="0.5" fill="none" stroke="white" stroke-width="1" />
<ellipse cx="501" cy="60" rx="0.5" ry="0.5" fill="none" stroke="white" stroke-width="1" />
<ellipse cx="77" cy="290" rx="0.5" ry="0.5" fill="none" stroke="white" stroke-width="1" />
<ellipse cx="819" cy="334" rx="0.5" ry="0.5" fill="none" stroke="white" stroke-width="1" />
<ellipse cx="305" cy="64" rx="0.5" ry="0.5" fill="none" stroke="white" stroke-width="1" />
<ellipse cx="540" cy="19" rx="0.5" ry="0.5" fill="none" stroke="white" stroke-width="1" />
<ellipse cx="450.0" cy="590.0" rx="180" ry="180" fill="none" stroke="white" stroke-width="1" />
<ellipse cx="450.0" cy="590.0" rx="200" ry="200" fill="none" stroke="white" stroke-width="1" />
<ellipse cx="450.0" cy="590.0" rx="220" ry="220" fill="none" stroke="white" stroke-width="1" />
<path d="M700.0,589.9999999999999 L800.0,589.9999999999999" fill="none" stroke="white" stroke-width="1" />
<path d="M696.2019382530519,546.5879555832672 L735.5942483735403,539.64202847659" fill="none" stroke="white" stroke-width="1" />
<path d="M684.9231551964771,504.4949641685829 L778.8924172750679,470.292949836016" fill="none" stroke="white" stroke-width="1" />
<path d="M666.5063509461096,464.9999999999999 L701.1473670974872,444.9999999999999" fill="none" stroke="white" stroke-width="1" />
<path d="M641.5111107797445,429.3030975783651 L718.1155550916422,365.02433660971116" fill="none" stroke="white" stroke-width="1" />
<path d="M610.6969024216348,398.4888892202555 L636.4084068090964,367.84711149549634" fill="none" stroke="white" stroke-width="1" />
<path d="M575.0,373.49364905389035 L625.0,286.8911086754465" fill="none" stroke="white" stroke-width="1" />
<path d="M535.505035831417,355.0768448035229 L549.1858415644438,317.48913997208655" fill="none" stroke="white" stroke-width="1" />
<path d="M493.4120444167325,343.79806174694795 L510.77686218342546,245.31728644572718" fill="none" stroke="white" stroke-width="1" />
<path d="M449.99999999999994,340.0 L449.99999999999994,300.0" fill="none" stroke="white" stroke-width="1" />
<path d="M406.58795558326744,343.798061746948 L389.22313781657436,245.31728644572718" fill="none" stroke="white" stroke-width="1" />
<path d="M364.49496416858267,355.07684480352293 L350.8141584355559,317.4891399720866" fill="none" stroke="white" stroke-width="1" />
<path d="M324.9999999999999,373.4936490538904 L274.9999999999999,286.89110867544656" fill="none" stroke="white" stroke-width="1" />
<path d="M289.3030975783651,398.4888892202555 L263.5915931909035,367.8471114954964" fill="none" stroke="white" stroke-width="1" />
<path d="M258.4888892202555,429.30309757836517 L181.88444490835764,365.02433660971127" fill="none" stroke="white" stroke-width="1" />
<path d="M233.49364905389035,465.0 L198.8526329025128,445.0" fill="none" stroke="white" stroke-width="1" />
<path d="M215.0768448035229,504.49496416858284 L121.10758272493206,470.29294983601596" fill="none" stroke="white" stroke-width="1" />
<path d="M203.798061746948,546.5879555832673 L164.40575162645968,539.6420284765902" fill="none" stroke="white" stroke-width="1" />
<path d="M104.0,101.4 L104.0,130.8" fill="none" stroke="white" stroke-width="2" />
<path d="M104.0,130.8 L120.8,130.8" fill="none" stroke="white" stroke-width="2" />
<path d="M130.0,105.4 L131.4,106.8 L132.8,105.4 L131.4,104.0 L130.0,105.4" fill="none" stroke="white" stroke-width="2" />
<path d="M131.4,111.19999999999999 L131.4,130.8" fill="none" stroke="white" stroke-width="2" />
<path d="M149.0,111.19999999999999 L149.0,130.8" fill="none" stroke="white" stroke-width="2" />
<path d="M149.0,116.8 L153.2,112.6 L156.0,111.19999999999999 L160.2,111.19999999999999 L163.0,112.6 L164.4,116.8 L164.4,130.8" fill="none" stroke="white" stroke-width="2" />
<path d="M172.2,119.6 L189.0,119.6 L189.0,116.8 L187.6,114.0 L186.2,112.6 L183.4,111.19999999999999 L179.2,111.19999999999999 L176.4,112.6 L173.6,115.4 L172.2,119.6 L172.2,122.39999999999999 L173.6,126.6 L176.4,129.39999999999998 L179.2,130.8 L183.4,130.8 L186.2,129.39999999999998 L189.0,126.6" fill="none" stroke="white" stroke-width="2" />
<path d="M206.0,101.4 L206.0,130.8" fill="none" stroke="white" stroke-width="2" />
<path d="M206.0,101.4 L215.8,101.4 L220.0,102.8 L222.8,105.6 L224.2,108.4 L225.6,112.6 L225.6,119.6 L224.2,123.8 L222.8,126.6 L220.0,129.39999999999998 L215.8,130.8 L206.0,130.8" fill="none" stroke="white" stroke-width="2" />
<path d="M237.0,111.19999999999999 L237.0,130.8" fill="none" stroke="white" stroke-width="2" />
<path d="M237.0,121.19999999999999 L238.4,117.0 L241.2,114.19999999999999 L244.0,112.8 L248.2,112.8" fill="none" stroke="white" stroke-width="2" />
<path d="M254.2,119.6 L271.0,119.6 L271.0,116.8 L269.6,114.0 L268.2,112.6 L265.4,111.19999999999999 L261.2,111.19999999999999 L258.4,112.6 L255.6,115.4 L254.2,119.6 L254.2,122.39999999999999 L255.6,126.6 L258.4,129.39999999999998 L261.2,130.8 L265.4,130.8 L268.2,129.39999999999998 L271.0,126.6" fill="none" stroke="white" stroke-width="2" />
<path d="M299.0,111.19999999999999 L299.0,130.8" fill="none" stroke="white" stroke-width="2" />
<path d="M299.0,115.4 L296.2,112.6 L293.4,111.19999999999999 L289.2,111.19999999999999 L286.4,112.6 L283.6,115.4 L282.2,119.6 L282.2,122.39999999999999 L283.6,126.6 L286.4,129.39999999999998 L289.2,130.8 L293.4,130.8 L296.2,129.39999999999998 L299.0,126.6" fill="none" stroke="white" stroke-width="2" />
<path d="M317.0,111.19999999999999 L317.0,130.8" fill="none" stroke="white" stroke-width="2" />
<path d="M317.0,116.8 L321.2,112.6 L324.0,111.19999999999999 L328.2,111.19999999999999 L331.0,112.6 L332.4,116.8 L332.4,130.8" fill="none" stroke="white" stroke-width="2" />
<path d="M332.4,116.8 L336.6,112.6 L339.4,111.19999999999999 L343.6,111.19999999999999 L346.4,112.6 L347.8,116.8 L347.8,130.8" fill="none" stroke="white" stroke-width="2" />
</svg>