<?xml version="1.0" encoding="UTF-8"?>
<svg xmlns="http://www.w3.org/2000/svg" xmlns:xlink="http://www.w3.org/1999/xlink"
     width="300" height="300" viewBox="0 0 300 300">
<defs>
</defs>
<rect x="0" y="0" width="100%" height="100%" fill="#263238" />
<path d="M50.0,50.0 L250.0,50.0 L250.0,250.0 L50.0,250.0 Z" fill="none" stroke="#FFCB6B" stroke-width="1" fill-opacity="1.0" />
<path d="M68.88404246547223,34.15440693208616 L265.84559306791385,68.88404246547223 L231.11595753452775,265.84559306791385 L34.15440693208616,231.11595753452775 Z" fill="none" stroke="#FFCB6B" stroke-width="1" fill-opacity="1.0" />
<path d="M90.23275225397603,21.82872358884228 L278.1712764111577,90.23275225397603 L209.76724774602397,278.1712764111577 L21.82872358884228,209.76724774602397 Z" fill="none" stroke="#FFCB6B" stroke-width="1" fill-opacity="1.0" />
<path d="M113.39745962155612,13.397459621556123 L286.6025403784439,113.39745962155612 L186.60254037844388,286.6025403784439 L13.397459621556123,186.60254037844388 Z" fill="none" stroke="#FFCB6B" stroke-width="1" fill-opacity="1.0" />
<path d="M137.6743166567561,9.11679471944825 L290.8832052805517,137.6743166567561 L162.3256833432439,290.88320528055175 L9.11679471944828,162.3256833432439 Z" fill="none" stroke="#FFCB6B" stroke-width="1" fill-opacity="1.0" />
<path d="M162.32568334324387,9.11679471944825 L290.88320528055175,162.32568334324387 L137.67431665675613,290.88320528055175 L9.11679471944825,137.67431665675613 Z" fill="none" stroke="#FFCB6B" stroke-width="1" fill-opacity="1.0" />
<path d="M186.60254037844385,13.397459621556123 L286.6025403784439,186.60254037844385 L113.39745962155615,286.6025403784439 L13.397459621556123,113.39745962155615 Z" fill="none" stroke="#FFCB6B" stroke-width="1" fill-opacity="1.0" />
<path d="M209.76724774602394,21.82872358884228 L278.1712764111577,209.76724774602394 L90.23275225397606,278.1712764111577 L21.82872358884228,90.23275225397606 Z" fill="none" stroke="#FFCB6B" stroke-width="1" fill-opacity="1.0" />
<path d="M231.11595753452775,34.15440693208616 L265.84559306791385,231.11595753452775 L68.88404246547223,265.84559306791385 L34.15440693208616,68.88404246547223 Z" fill="none" stroke="#FFCB6B" stroke-width="1" fill-opacity="1.0" />
<path d="M250.0,50.0 L250.0,250.0 L50.0,250.0 L50.0,50.0 Z" fill="none" stroke="#FFCB6B" stroke-width="1" fill-opacity="1.0" />
<path d="M265.8455930679138,68.88404246547223 L231.11595753452775,265.84559306791385 L34.154406932086175,231.11595753452775 L68.88404246547223,34.15440693208616 Z" fill="none" stroke="#FFCB6B" stroke-width="1" fill-opacity="1.0" />
<path d="M278.1712764111577,90.23275225397603 L209.76724774602397,278.1712764111577 L21.82872358884228,209.76724774602397 L90.23275225397603,21.82872358884228 Z" fill="none" stroke="#FFCB6B" stroke-width="1" fill-opacity="1.0" />
<path d="M286.60254037844385,113.3974596215561 L186.6025403784439,286.60254037844385 L13.397459621556152,186.6025403784439 L113.3974596215561,13.397459621556152 Z" fill="none" stroke="#FFCB6B" stroke-width="1" fill-opacity="1.0" />
<path d="M290.88320528055175,137.6743166567561 L162.3256833432439,290.8832052805517 L9.11679471944825,162.3256833432439 L137.6743166567561,9.11679471944828 Z" fill="none" stroke="#FFCB6B" stroke-width="1" fill-opacity="1.0" />
<path d="M290.88320528055175,162.32568334324384 L137.67431665675616,290.8832052805517 L9.11679471944825,137.67431665675616 L162.32568334324384,9.11679471944828 Z" fill="none" stroke="#FFCB6B" stroke-width="1" fill-opacity="1.0" />
<path d="M286.6025403784439,186.60254037844388 L113.39745962155612,286.6025403784439 L13.397459621556123,113.39745962155612 L186.60254037844388,13.397459621556123 Z" fill="none" stroke="#FFCB6B" stroke-width="1" fill-opacity="1.0" />
<path d="M278.1712764111577,209.76724774602394 L90.23275225397606,278.1712764111577 L21.82872358884228,90.23275225397606 L209.76724774602394,21.82872358884228 Z" fill="none" stroke="#FFCB6B" stroke-width="1" fill-opacity="1.0" />
<path d="M265.84559306791385,231.11595753452778 L68.8840424654722,265.84559306791385 L34.15440693208616,68.88404246547222 L231.1159575345278,34.15440693208616 Z" fill="none" stroke="#FFCB6B" stroke-width="1" fill-opacity="1.0" />
</svg>